<?xml version="1.0" encoding="UTF-8"?>
<svg width="100px" height="100px" viewBox="0 0 100 100" version="1.1" xmlns="http://www.w3.org/2000/svg" xmlns:xlink="http://www.w3.org/1999/xlink">
    <!-- Generator: Sketch 57 (83077) - https://sketch.com -->
    <title>Artboard</title>
    <desc>Created with Sketch.</desc>
    <g id="Artboard" stroke="none" stroke-width="1" fill="none" fill-rule="evenodd">
        <g id="bid" fill="#15B7DD" fill-rule="nonzero">
            <path d="M99.9929755,56.1451172 C99.9943359,55.6261719 99.7892578,55.1279297 99.4228516,54.7607422 C99.0564453,54.3933594 98.5587891,54.1869141 98.0398438,54.1869141 L83.4103516,54.1876953 L83.4103516,43.5644531 C92.6976563,40.9351563 99.5216797,32.3814453 99.5216797,22.2636719 C99.5216797,10.0591797 89.5925781,0.130078125 77.3880859,0.130078125 C65.1835938,0.130078125 55.2544922,10.0591797 55.2544922,22.2636719 C55.2544922,32.3814453 62.0787109,40.9351562 71.3660156,43.5644531 L71.3660156,54.1884766 L64.0050781,54.1888672 C63.6982422,54.1888672 63.3958984,54.2611328 63.1222656,54.3998047 L52.0169922,60.0277344 L52.0169922,59.2927734 C52.0169922,58.2140625 51.1425781,57.3396484 50.0638672,57.3396484 L37.3167969,57.3396484 L2.15742188,55.2705078 C1.62148438,55.2394531 1.09414063,55.4300781 0.702734375,55.7992188 C0.311328125,56.1683594 0.089453125,56.6822266 0.089453125,57.2203125 L0.089453125,69.4720703 C0.089453125,70.5507813 0.963867188,71.4251953 2.04257813,71.4251953 C3.12128906,71.4251953 3.99570313,70.5507813 3.99570313,69.4720703 L3.99570313,59.2917969 L35.3052734,61.1341797 L35.3052734,92.3470703 L3.99589844,95.7339844 L3.99589844,86.7818359 C3.99589844,85.703125 3.12148438,84.8287109 2.04277344,84.8287109 C0.9640625,84.8287109 0.089453125,85.703125 0.089453125,86.7818359 L0.089453125,97.9099609 C0.089453125,98.4644531 0.325390625,98.9929688 0.738085938,99.3632813 C1.09824219,99.6867188 1.56367188,99.8630859 2.04277344,99.8630859 C2.1125,99.8630859 2.1828125,99.859375 2.25292969,99.8517578 L37.3638672,96.0537109 L50.0638672,96.0537109 C50.9150391,96.0537109 51.6371094,95.5083984 51.9044922,94.7486328 L60.6126953,99.45 C60.8960938,99.603125 61.2130859,99.6835938 61.5351563,99.6845703 L68.234375,99.7027344 L68.2347656,99.7027344 L68.2402344,99.7027344 C68.2431641,99.7027344 68.2458984,99.7023438 68.2488281,99.7023438 L76.1386719,99.7236328 L76.1544922,99.7236328 C79.3462891,99.7234375 81.9476563,97.1310547 81.95625,93.9376953 L81.9572266,93.6111328 C81.9589844,92.9556641 81.8515625,92.3169922 81.6457031,91.7144531 L81.6474609,91.7144531 L81.6640625,91.7144531 C83.2509766,91.7144531 84.7443359,91.0984375 85.8701172,89.9787109 C86.9998047,88.8550781 87.6242188,87.3587891 87.6285156,85.765625 C87.6310547,84.8541016 87.4296875,83.9720703 87.0478516,83.1708984 C89.1566406,82.2599609 90.6384766,80.1720703 90.6451172,77.7431641 C90.6474609,76.8779297 90.465625,76.0396484 90.1205078,75.2714844 C92.3863281,74.4351563 94.0083984,72.2679687 94.0154297,69.7277344 C94.0183594,68.5912109 93.7048828,67.5265625 93.1580078,66.61875 C97.1714844,64.8232422 99.9804688,60.8087891 99.9929755,56.1451172 Z M59.1605469,22.2636719 C59.1605469,12.2130859 67.3373047,4.03632813 77.3878906,4.03632813 C87.4384766,4.03632813 95.6152344,12.2130859 95.6152344,22.2636719 C95.6152344,31.5716797 88.6017578,39.2714844 79.5820313,40.3585937 C78.1625,40.5275391 76.7136719,40.5310547 75.2943359,40.3701172 C66.2263672,39.3283203 59.1605469,31.60625 59.1605469,22.2636719 L59.1605469,22.2636719 Z M75.2720703,44.2972656 C76.6777344,44.4306641 78.0982422,44.4304688 79.5039062,44.2970703 L79.5039062,54.1878906 L75.2720703,54.1880859 L75.2720703,44.2972656 Z M39.2117188,92.1472656 L39.2117188,61.2458984 L48.1107422,61.2458984 L48.1107422,63.2058594 L48.1107422,63.2072266 L48.1107422,92.1472656 L39.2117188,92.1472656 L39.2117188,92.1472656 Z M88.0558594,67.6236328 C89.1912109,67.6267578 90.1123047,68.5658203 90.1091876,69.7169922 C90.1060547,70.8492187 89.2025391,71.7341797 88.0507812,71.7339844 C88.0466797,71.7339844 88.0429688,71.7339844 88.0394531,71.7339844 L74.6039063,71.7298828 C73.34375,71.6785156 72.4121094,70.4708984 72.6771484,69.2382812 C72.8789063,68.3126953 73.7056641,67.6166016 74.6992188,67.6166016 L88.0558594,67.6236328 Z M86.1333984,76.2544922 C86.5253906,76.6523437 86.7404297,77.1771484 86.739069,77.7322266 C86.7359375,78.8667969 85.8322266,79.7533203 84.6804688,79.7533203 C84.6765625,79.7533203 84.6726563,79.7533203 84.6693359,79.7533203 L72.6638672,79.7521484 C72.6613281,79.7521484 72.6589844,79.7517578 72.6566406,79.7517578 C71.5371094,79.7351562 70.6289062,78.809375 70.6320232,77.6880859 C70.6351562,76.5568359 71.5576172,75.6363281 72.6966797,75.6363281 L84.6867188,75.6404297 C85.2310547,75.6419922 85.7449219,75.8601562 86.1333984,76.2544922 L86.1333984,76.2544922 Z M78.0500486,93.9263672 C78.0472656,94.9699219 77.1972656,95.8169922 76.1544922,95.8169922 C76.1527344,95.8169922 76.1509766,95.8169922 76.1492188,95.8169922 L68.2447266,95.7957031 C67.1269531,95.7925781 66.1886719,94.8484375 66.1917891,93.7308594 C66.1949219,92.5996094 67.1173828,91.6791016 68.2576172,91.6791016 L69.0339844,91.6802734 L76.1603516,91.6996094 C76.7833984,91.7011719 77.3726563,92.0166016 77.7242188,92.5302734 C78.0169922,92.9578125 78.0515625,93.4269531 78.0500486,93.9263672 L78.0500486,93.9263672 Z M83.1154297,87.2087891 C82.7255859,87.5966797 82.2128906,87.8019531 81.6580078,87.8078125 L69.6818359,87.7755859 C68.5552734,87.7634766 67.6119141,86.8509766 67.6148369,85.7113281 C67.6181641,84.5857422 68.5638672,83.6580078 69.6841797,83.6580078 L81.6691406,83.6595703 C82.7978516,83.6625 83.7253906,84.6349609 83.7222735,85.7546875 C83.7208984,86.3044922 83.5054688,86.8208984 83.1154297,87.2087891 L83.1154297,87.2087891 Z M88.4476562,63.7167969 C88.440625,63.7167969 88.4335938,63.7167969 88.4267578,63.7167969 L77.0623047,63.7117187 L74.7050781,63.7105469 C74.6994141,63.7105469 74.6939453,63.7105469 74.6884766,63.7105469 C73.1015625,63.7105469 71.6082031,64.3265625 70.4824219,65.4462891 C69.5128906,66.4105469 68.9167969,67.6496094 68.7642578,68.9886719 C68.6183594,70.2480469 68.88125,71.5457031 69.5142578,72.6449219 C69.1460938,72.8775391 68.8,73.1507812 68.4837891,73.4652344 C67.5447266,74.3992187 66.9560547,75.5912109 66.7814453,76.8822266 C66.7564453,77.0644531 66.7400391,77.2486328 66.7320312,77.4324219 C66.6476562,77.7419922 66.3285156,78.7115234 65.4396484,79.653125 C63.9830078,81.196875 61.7107422,81.9794922 58.6861328,81.9794922 C57.6074219,81.9794922 56.7330078,82.8539062 56.7330078,83.9326172 C56.7330078,85.0113281 57.6074219,85.8857422 58.6861328,85.8857422 C60.6507812,85.8857422 62.3208984,85.5992187 63.7376953,85.1291016 C63.6076172,86.4669922 63.9326172,87.8369141 64.6681641,88.9640625 C64.4492187,89.1289062 64.2396484,89.3091797 64.0419922,89.5058594 C62.4115234,91.1275391 61.8568359,93.6189453 62.6433594,95.7810547 L62.0367187,95.7794922 L52.0171875,90.3699219 L52.0171875,64.4070312 L64.4722656,58.0951172 L95.8248047,58.0931641 C94.9472656,61.3300781 91.9724609,63.7167969 88.4476562,63.7167969 L88.4476562,63.7167969 Z" id="Shape"></path>
            <path d="M75.9337891,29.9414063 L88.4248047,17.4503906 C89.1875,16.6876953 89.1875,15.4509766 88.4248047,14.6880859 C87.6621094,13.9255859 86.4253906,13.9255859 85.6625,14.6880859 L74.6923828,25.6583984 L71.4195312,21.6863281 C70.7335937,20.8539063 69.5029297,20.7351563 68.6701172,21.4210938 C67.8376953,22.1070313 67.7189453,23.3378906 68.4048828,24.1705078 L73.0455078,29.8023437 C73.3957031,30.2273437 73.9089844,30.4847656 74.4589844,30.5111328 C74.4904297,30.5126953 74.5216797,30.5134766 74.5529297,30.5134766 C75.0693359,30.5134766 75.5666016,30.3083984 75.9337891,29.9414062 L75.9337891,29.9414063 Z" id="Path"></path>
            <path d="M45.4636719,66.4789062 C45.1431641,65.7101562 44.3501953,65.2166016 43.5177734,65.2789062 C42.6675781,65.3423828 41.9460938,65.9667969 41.7574219,66.7976562 C41.3708984,68.5013672 43.3537109,69.8263672 44.784375,68.8222656 C45.5226562,68.3041016 45.8107422,67.3121094 45.4636719,66.4789062 Z" id="Path"></path>
            <path d="M0.323046875,79.1 C1.31914063,80.6232422 3.76484375,79.9615234 3.89355469,78.1595703 C4.01621094,76.4441406 1.91601562,75.4095703 0.634375,76.5693359 C-0.07421875,77.2103516 -0.20546875,78.3068359 0.323046875,79.1 Z" id="Path"></path>
        </g>
    </g>
</svg>