<?xml version="1.0" encoding="UTF-8"?>
<svg width="100px" height="100px" viewBox="0 0 100 100" version="1.1" xmlns="http://www.w3.org/2000/svg" xmlns:xlink="http://www.w3.org/1999/xlink">
    <!-- Generator: Sketch 57 (83077) - https://sketch.com -->
    <title>Artboard</title>
    <desc>Created with Sketch.</desc>
    <g id="Artboard" stroke="none" stroke-width="1" fill="none" fill-rule="evenodd">
        <g id="game-controller" transform="translate(0.000000, 12.000000)" fill="#15B7DD" fill-rule="nonzero">
            <path d="M75.2284615,30.3523077 L55.9990385,30.3523077 L55.9990385,26.1430769 C55.9990385,25.3463462 55.3534615,24.7007692 54.5567308,24.7007692 L50.6486538,24.7007692 L50.6486538,18.7519231 C50.6486538,16.7030769 52.3155769,15.0361538 54.3644231,15.0361538 C58.0038462,15.0361538 60.9646154,12.0753846 60.9646154,8.43596154 L60.9646154,1.54692308 C60.9646154,0.750192308 60.3190385,0.104615385 59.5223077,0.104615385 C58.7255769,0.104615385 58.08,0.750192308 58.08,1.54692308 L58.08,8.43576923 C58.08,10.4846154 56.4132692,12.1513462 54.3644231,12.1513462 C50.7248077,12.1513462 47.7640385,15.1121154 47.7640385,18.7517308 L47.7640385,24.7005769 L43.9051923,24.7005769 C43.1084615,24.7005769 42.4628846,25.3461538 42.4628846,26.1428846 L42.4628846,30.3521154 L23.2332692,30.3521154 C10.4223077,30.3523077 -8.52651283e-14,40.7746154 -8.52651283e-14,53.5853846 C-8.52651283e-14,60.8328846 3.29173077,67.535 9.03134615,71.9736538 C9.66115385,72.4611538 10.5673077,72.3453846 11.0546154,71.715 C11.5419231,71.085 11.4263462,70.1792308 10.7959615,69.6917308 C5.76807692,65.8034615 2.88461538,59.9330769 2.88461538,53.5853846 C2.88461538,42.365 12.0128846,33.2367308 23.2330769,33.2367308 L32.1101923,33.2367308 L36.5173077,41.9265385 C36.7628846,42.4111538 37.2601923,42.7163462 37.8034615,42.7163462 L45.8501923,42.7163462 C46.6469231,42.7163462 47.2925,42.0707692 47.2925,41.2740385 C47.2925,40.4773077 46.6469231,39.8317308 45.8501923,39.8317308 L38.6892308,39.8317308 L35.3444231,33.2367308 L63.0678846,33.2367308 L59.7230769,39.8317308 L52.5621154,39.8317308 C51.7653846,39.8317308 51.1198077,40.4773077 51.1198077,41.2740385 C51.1198077,42.0707692 51.7653846,42.7163462 52.5621154,42.7163462 L60.6088462,42.7163462 C61.1521154,42.7163462 61.6494231,42.4109615 61.895,41.9265385 L66.3021154,33.2367308 L75.2282692,33.2367308 C86.4486538,33.2367308 95.5769231,42.365 95.5769231,53.5853846 C95.5769231,64.8055769 86.4486538,73.9338462 75.2282692,73.9338462 C67.7744231,73.9338462 60.9244231,69.8646154 57.3515385,63.3140385 C57.0990385,62.8505769 56.6132692,62.5623077 56.0853846,62.5623077 L42.3759615,62.5623077 C41.8480769,62.5623077 41.3623077,62.8505769 41.1098077,63.3140385 C37.5369231,69.8646154 30.6869231,73.9338462 23.2328846,73.9338462 C20.7784615,73.9338462 18.38,73.5021154 16.1036538,72.6503846 C15.3573077,72.3713462 14.5263462,72.7498077 14.2475,73.4957692 C13.9684615,74.2419231 14.3469231,75.0728846 15.0928846,75.3519231 C17.6934615,76.325 20.4323077,76.8182692 23.2328846,76.8182692 C31.4544231,76.8182692 39.0317308,72.4830769 43.2138462,65.4467308 L55.2473077,65.4467308 C59.4294231,72.4830769 67.0067308,76.8182692 75.2280769,76.8182692 C88.0388462,76.8182692 98.4613462,66.3959615 98.4613462,53.5851923 C98.4613462,40.7746154 88.0392308,30.3523077 75.2284615,30.3523077 L75.2284615,30.3523077 Z M53.1142308,30.3523077 L45.3471154,30.3523077 L45.3471154,27.5853846 L53.1142308,27.5853846 L53.1142308,30.3523077 Z" id="Shape"></path>
            <path d="M80.5215385,53.4303846 C83.61,53.4303846 86.1225,50.9178846 86.1225,47.8292308 C86.1225,44.7407692 83.61,42.2282692 80.5215385,42.2282692 C77.4328846,42.2282692 74.9203846,44.7407692 74.9203846,47.8292308 C74.9203846,50.9178846 77.4328846,53.4303846 80.5215385,53.4303846 Z M80.5215385,45.1128846 C82.0192308,45.1128846 83.2378846,46.3315385 83.2378846,47.8292308 C83.2378846,49.3271154 82.0192308,50.5457692 80.5215385,50.5457692 C79.0236538,50.5457692 77.805,49.3271154 77.805,47.8292308 C77.805,46.3315385 79.0236538,45.1128846 80.5215385,45.1128846 Z" id="Shape"></path>
            <path d="M70.8578846,53.7403846 C67.7692308,53.7403846 65.2567308,56.2528846 65.2567308,59.3413462 C65.2567308,62.43 67.7692308,64.9425 70.8578846,64.9425 C73.9463462,64.9425 76.4588462,62.43 76.4588462,59.3413462 C76.4588462,56.2528846 73.9463462,53.7403846 70.8578846,53.7403846 Z M70.8578846,62.0578846 C69.36,62.0578846 68.1413462,60.8392308 68.1413462,59.3413462 C68.1413462,57.8436538 69.36,56.625 70.8578846,56.625 C72.3555769,56.625 73.5742308,57.8436538 73.5742308,59.3413462 C73.5742308,60.8392308 72.3555769,62.0578846 70.8578846,62.0578846 Z" id="Shape"></path>
            <path d="M18.4659615,63.5001923 C18.4659615,64.2969231 19.1115385,64.9425 19.9082692,64.9425 L26.5576923,64.9425 C27.3544231,64.9425 28,64.2969231 28,63.5001923 L28,58.3521154 L33.1480769,58.3521154 C33.9448077,58.3521154 34.5903846,57.7065385 34.5903846,56.9098077 L34.5903846,50.2605769 C34.5903846,49.4638462 33.9448077,48.8182692 33.1480769,48.8182692 L28,48.8182692 L28,43.6705769 C28,42.8738462 27.3544231,42.2282692 26.5576923,42.2282692 L19.9084615,42.2282692 C19.1117308,42.2282692 18.4661538,42.8738462 18.4661538,43.6705769 L18.4661538,48.8182692 L13.3182692,48.8182692 C12.5215385,48.8182692 11.8759615,49.4638462 11.8759615,50.2605769 L11.8759615,56.9098077 C11.8759615,57.7065385 12.5215385,58.3521154 13.3182692,58.3521154 L18.4661538,58.3521154 L18.4661538,63.5001923 L18.4659615,63.5001923 Z M14.7605769,55.4675 L14.7605769,51.7028846 L19.9084615,51.7028846 C20.7051923,51.7028846 21.3507692,51.0573077 21.3507692,50.2605769 L21.3507692,45.1128846 L25.1153846,45.1128846 L25.1153846,50.2605769 C25.1153846,51.0573077 25.7609615,51.7028846 26.5576923,51.7028846 L31.7057692,51.7028846 L31.7057692,55.4675 L26.5576923,55.4675 C25.7609615,55.4675 25.1153846,56.1130769 25.1153846,56.9098077 L25.1153846,62.0578846 L21.3507692,62.0578846 L21.3507692,56.9098077 C21.3507692,56.1130769 20.7051923,55.4675 19.9084615,55.4675 L14.7605769,55.4675 Z" id="Shape"></path>
        </g>
    </g>
</svg>