<?xml version="1.0" encoding="UTF-8"?>
<svg width="100px" height="100px" viewBox="0 0 100 100" version="1.1" xmlns="http://www.w3.org/2000/svg" xmlns:xlink="http://www.w3.org/1999/xlink">
    <!-- Generator: Sketch 57 (83077) - https://sketch.com -->
    <title>Artboard</title>
    <desc>Created with Sketch.</desc>
    <g id="Artboard" stroke="none" stroke-width="1" fill="none" fill-rule="evenodd">
        <g id="health-check" transform="translate(11.000000, 0.000000)" fill="#15B7DD" fill-rule="nonzero">
            <path d="M75.0724609,12.5251953 L71.8404297,12.5251953 L71.8404297,9.29316406 C71.8404297,7.62207031 70.4810547,6.26269531 68.8099609,6.26269531 L18.6082031,6.26269531 L18.6082031,4.59609375 C18.6082031,2.06191406 16.5462891,0 14.0119141,0 C11.4775391,0 9.41582031,2.06191406 9.41582031,4.59609375 L9.41582031,6.26269531 L3.05253906,6.26269531 C1.38144531,6.26269531 0.0220703125,7.62207031 0.0220703125,9.29316406 L0.0220703125,90.7070313 C0.0220703125,92.378125 1.38144531,93.7375 3.05253906,93.7375 L6.28457031,93.7375 L6.28457031,96.9695313 C6.28457031,98.640625 7.64394531,100 9.31503906,100 L75.0724609,100 C76.7435547,100 78.1029297,98.640625 78.1029297,96.9695313 L78.1029297,15.5558594 C78.1029297,13.8847656 76.7435547,12.5251953 75.0724609,12.5251953 Z M12.3455078,4.59609375 C12.3455078,3.67714844 13.0931641,2.9296875 14.0121094,2.9296875 C14.9310547,2.9296875 15.6785156,3.67714844 15.6785156,4.59609375 L15.6785156,6.26269531 L12.3455078,6.26269531 L12.3455078,4.59609375 Z M75.1732422,96.9695313 C75.1732422,97.0251953 75.128125,97.0703125 75.0724609,97.0703125 L9.31503906,97.0703125 C9.259375,97.0703125 9.21425781,97.0251953 9.21425781,96.9695313 L9.21425781,93.7375 L68.8097656,93.7375 C70.4808594,93.7375 71.8402344,92.378125 71.8402344,90.7070312 L71.8402344,23.3833984 C71.8402344,22.5742187 71.184375,21.9185547 70.3753906,21.9185547 C69.5664063,21.9185547 68.9105469,22.5742187 68.9105469,23.3833984 L68.9105469,90.7070312 C68.9105469,90.7626953 68.8654297,90.8078125 68.8097656,90.8078125 L3.05253906,90.8078125 C2.996875,90.8078125 2.95175781,90.7626953 2.95175781,90.7070312 L2.95175781,9.29316406 C2.95175781,9.2375 2.996875,9.1921875 3.05253906,9.1921875 L9.41601562,9.1921875 L9.41601562,13.9902344 C9.41601562,16.5244141 11.4779297,18.5861328 14.0123047,18.5861328 C16.5466797,18.5861328 18.6083984,16.5244141 18.6083984,13.9902344 C18.6083984,13.1810547 17.9525391,12.5253906 17.1435547,12.5253906 C16.3345703,12.5253906 15.6787109,13.1810547 15.6787109,13.9902344 C15.6787109,14.9089844 14.9310547,15.6564453 14.0121094,15.6564453 C13.0931641,15.6564453 12.3457031,14.9089844 12.3457031,13.9902344 L12.3457031,9.1921875 L68.8099609,9.1921875 C68.865625,9.1921875 68.9107422,9.23730469 68.9107422,9.29296875 L68.9107422,17.1212891 C68.9107422,17.9302734 69.5666016,18.5861328 70.3755859,18.5861328 C71.1845703,18.5861328 71.8404297,17.9302734 71.8404297,17.1212891 L71.8404297,15.4548828 L75.0724609,15.4548828 C75.128125,15.4548828 75.1732422,15.5 75.1732422,15.5558594 L75.1732422,96.9695313 Z" id="Shape"></path>
            <path d="M31.3351563,43.7375 C31.3351563,45.4085938 32.6945313,46.7679688 34.365625,46.7679688 L37.496875,46.7679688 C39.1679688,46.7679688 40.5273438,45.4085938 40.5273438,43.7375 L40.5273438,37.3740234 L46.8908203,37.3740234 C48.5619141,37.3740234 49.9212891,36.0146484 49.9212891,34.3435547 L49.9212891,31.2123047 C49.9212891,29.5412109 48.5619141,28.1816406 46.8908203,28.1816406 L40.5273438,28.1816406 L40.5273438,21.8183594 C40.5273438,20.1472656 39.1679688,18.7876953 37.496875,18.7876953 L34.365625,18.7876953 C32.6945313,18.7876953 31.3351563,20.1472656 31.3351563,21.8183594 L31.3351563,28.1816406 L24.9716797,28.1816406 C23.3005859,28.1816406 21.9412109,29.5412109 21.9412109,31.2123047 L21.9412109,34.3435547 C21.9412109,36.0146484 23.3005859,37.3740234 24.9716797,37.3740234 L31.3351563,37.3740234 L31.3351563,43.7375 Z M24.9716797,34.4441406 C24.9160156,34.4441406 24.8708984,34.3990234 24.8708984,34.3433594 L24.8708984,31.2121094 C24.8708984,31.1564453 24.9160156,31.1111328 24.9716797,31.1111328 L32.8,31.1111328 C33.6089844,31.1111328 34.2648438,30.4554688 34.2648438,29.6462891 L34.2648438,21.8181641 C34.2648438,21.7625 34.3099609,21.7171875 34.365625,21.7171875 L37.496875,21.7171875 C37.5525391,21.7171875 37.5976563,21.7623047 37.5976563,21.8181641 L37.5976563,29.6462891 C37.5976563,30.4554688 38.2535156,31.1111328 39.0625,31.1111328 L46.8908203,31.1111328 C46.9464844,31.1111328 46.9916016,31.15625 46.9916016,31.2121094 L46.9916016,34.3433594 C46.9916016,34.3988281 46.9464844,34.4441406 46.8908203,34.4441406 L39.0625,34.4441406 C38.2535156,34.4441406 37.5976563,35.1 37.5976563,35.9089844 L37.5976563,43.7373047 C37.5976563,43.7929688 37.5525391,43.8380859 37.496875,43.8380859 L34.365625,43.8380859 C34.3099609,43.8380859 34.2648438,43.7929688 34.2648438,43.7373047 L34.2648438,35.9089844 C34.2648438,35.1 33.6089844,34.4441406 32.8,34.4441406 L24.9716797,34.4441406 Z" id="Shape"></path>
            <path d="M57.8501953,56.3634766 L26.5373047,56.3634766 C25.7283203,56.3634766 25.0724609,57.0193359 25.0724609,57.8283203 C25.0724609,58.6373047 25.7283203,59.2931641 26.5373047,59.2931641 L57.8501953,59.2931641 C58.6591797,59.2931641 59.3150391,58.6373047 59.3150391,57.8283203 C59.3150391,57.0193359 58.6591797,56.3634766 57.8501953,56.3634766 Z" id="Path"></path>
            <path d="M18.7091797,56.3634766 L14.0121094,56.3634766 C13.203125,56.3634766 12.5472656,57.0193359 12.5472656,57.8283203 C12.5472656,58.6373047 13.203125,59.2931641 14.0121094,59.2931641 L18.7091797,59.2931641 C19.5181641,59.2931641 20.1740234,58.6373047 20.1740234,57.8283203 C20.1740234,57.0193359 19.5181641,56.3634766 18.7091797,56.3634766 Z" id="Path"></path>
            <path d="M57.8501953,65.7574219 L26.5373047,65.7574219 C25.7283203,65.7574219 25.0724609,66.4130859 25.0724609,67.2222656 C25.0724609,68.03125 25.7283203,68.6871094 26.5373047,68.6871094 L57.8501953,68.6871094 C58.6591797,68.6871094 59.3150391,68.03125 59.3150391,67.2222656 C59.3150391,66.4130859 58.6591797,65.7574219 57.8501953,65.7574219 Z" id="Path"></path>
            <path d="M57.8501953,75.1511719 L26.5373047,75.1511719 C25.7283203,75.1511719 25.0724609,75.8068359 25.0724609,76.6160156 C25.0724609,77.425 25.7283203,78.0808594 26.5373047,78.0808594 L57.8501953,78.0808594 C58.6591797,78.0808594 59.3150391,77.425 59.3150391,76.6160156 C59.3150391,75.8070313 58.6591797,75.1511719 57.8501953,75.1511719 Z" id="Path"></path>
            <path d="M18.7091797,65.7574219 L14.0121094,65.7574219 C13.203125,65.7574219 12.5472656,66.4130859 12.5472656,67.2222656 C12.5472656,68.03125 13.203125,68.6871094 14.0121094,68.6871094 L18.7091797,68.6871094 C19.5181641,68.6871094 20.1740234,68.03125 20.1740234,67.2222656 C20.1740234,66.4130859 19.5181641,65.7574219 18.7091797,65.7574219 Z" id="Path"></path>
            <path d="M18.7091797,75.1511719 L14.0121094,75.1511719 C13.203125,75.1511719 12.5472656,75.8068359 12.5472656,76.6160156 C12.5472656,77.425 13.203125,78.0808594 14.0121094,78.0808594 L18.7091797,78.0808594 C19.5181641,78.0808594 20.1740234,77.425 20.1740234,76.6160156 C20.1740234,75.8070313 19.5181641,75.1511719 18.7091797,75.1511719 Z" id="Path"></path>
        </g>
    </g>
</svg>