<?xml version="1.0" encoding="UTF-8"?>
<svg width="100px" height="100px" viewBox="0 0 100 100" version="1.1" xmlns="http://www.w3.org/2000/svg" xmlns:xlink="http://www.w3.org/1999/xlink">
    <!-- Generator: Sketch 57 (83077) - https://sketch.com -->
    <title>Artboard</title>
    <desc>Created with Sketch.</desc>
    <g id="Artboard" stroke="none" stroke-width="1" fill="none" fill-rule="evenodd">
        <g id="member-card" transform="translate(0.000000, 9.000000)" fill="#15B7DD" fill-rule="nonzero">
            <path d="M94.8236476,16.111568 L92.46543,5.39412768 C92.0702363,3.60319201 91.0019189,2.0719115 89.4561708,1.08430799 C87.9104228,0.0959430799 86.072277,-0.231481481 84.2805799,0.163712281 L13.4167885,15.7544468 L7.22161306,15.7544468 C3.23921793,15.7544468 0,18.9936647 0,22.9752984 L0,54.2580409 C0,55.3347345 0.884807407,56.2073587 1.96150097,56.2073587 C3.03819454,56.2073587 3.9047271,55.3347345 3.9047271,54.2580409 C3.9047271,54.2062622 3.90244269,54.1544834 3.89863548,54.1034661 L3.89863548,22.9752984 C3.89863548,21.1432444 5.38879747,19.6530823 7.22161306,19.6530823 L92.5834552,19.6530823 C94.4155092,19.6530823 95.9064327,21.1432444 95.9064327,22.9752984 L95.9064327,69.8381152 L1.94931774,69.8381152 C0.872624172,69.8381152 0,70.711501 0,71.7874329 L0,75.676931 C0,77.0224172 0.37082729,78.2826207 1.01501579,79.3623598 C1.02643762,79.3806347 1.03633645,79.399671 1.04699688,79.4179458 C1.05080409,79.423276 1.05461131,79.4293676 1.05841871,79.4346979 C2.32852086,81.5096552 4.61592359,82.8970212 7.22161306,82.8970212 L92.5834552,82.8970212 C95.055129,82.8970212 97.2397357,81.649001 98.5418189,79.7507006 C98.5509563,79.7369943 98.5608554,79.7240497 98.5699926,79.7103435 C98.5745614,79.7042519 98.5783686,79.6981602 98.5829374,79.6913072 C99.3542885,78.5430372 99.8058296,77.161763 99.8058296,75.676931 L99.8058296,22.9752984 C99.8058296,19.7756762 97.7118361,17.0565302 94.8236476,16.111568 Z M85.1189388,3.97097349 C86.7195115,3.61918246 88.3056164,4.63343684 88.6574074,6.23248655 L90.752924,15.7544468 L31.5614339,15.7544468 L85.1189388,3.97097349 Z M95.9064327,75.6761696 C95.9064327,76.2114706 95.7762244,76.7155519 95.5508345,77.1640472 C95.0033505,78.2498782 93.8802084,78.9983858 92.5826938,78.9983858 L7.22237446,78.9983858 C5.92485984,78.9983858 4.80171774,78.2498782 4.25423372,77.1640472 C4.02884386,76.7155519 3.89863548,76.2114706 3.89863548,75.6761696 L3.89863548,73.7375123 L95.9064327,73.7375123 L95.9064327,75.6761696 Z" id="Shape"></path>
            <path d="M37.7870674,50.3083881 C36.7103741,50.3083881 35.8377497,51.1810125 35.8377497,52.2577058 C35.8377497,53.3343994 36.7103741,54.2070236 37.7870674,54.2070236 L48.8227949,54.2070236 C49.8994883,54.2070236 50.7721127,53.3343994 50.7721127,52.2577058 C50.7721127,51.1810125 49.8994883,50.3083881 48.8227949,50.3083881 L37.7870674,50.3083881 Z" id="Path"></path>
            <path d="M67.6550316,54.2070236 C68.7317251,54.2070236 69.6043493,53.3343994 69.6043493,52.2577058 C69.6043493,51.1810125 68.7317251,50.3083881 67.6550316,50.3083881 L56.6193043,50.3083881 C55.5433723,50.3083881 54.6699865,51.1810125 54.6699865,52.2577058 C54.6699865,53.3343994 55.5433723,54.2070236 56.6193043,54.2070236 L67.6550316,54.2070236 Z" id="Path"></path>
            <path d="M86.48803,50.3083881 L75.4523025,50.3083881 C74.3756092,50.3083881 73.5029848,51.1810125 73.5029848,52.2577058 C73.5029848,53.3343994 74.3756092,54.2070236 75.4523025,54.2070236 L86.48803,54.2070236 C87.5647234,54.2070236 88.4373478,53.3343994 88.4373478,52.2577058 C88.4373478,51.1810125 87.5647234,50.3083881 86.48803,50.3083881 L86.48803,50.3083881 Z" id="Path"></path>
            <path d="M49.4540388,61.0387731 C49.4540388,62.1147053 50.326663,62.9880908 51.4033565,62.9880908 L86.48803,62.9880908 C87.563962,62.9880908 88.4373478,62.1147053 88.4373478,61.0387731 C88.4373478,59.9620797 87.563962,59.0894554 86.48803,59.0894554 L51.4033565,59.0894554 C50.326663,59.0894554 49.4540388,59.9620797 49.4540388,61.0387731 Z" id="Path"></path>
            <path d="M11.0296357,45.2188413 C11.3776195,45.8219115 12.021808,46.1935002 12.7177754,46.1935002 L18.5672515,46.1935002 L21.4919895,51.2586805 C21.8399731,51.8617507 22.4834004,52.2333394 23.180129,52.2333394 C23.8760965,52.2333394 24.5195236,51.8617507 24.8682688,51.2586805 L27.7922454,46.1935002 L33.6417214,46.1935002 C34.3384503,46.1935002 34.9818774,45.8219115 35.3298612,45.2188413 C35.6778448,44.6157712 35.6778448,43.8725938 35.3298612,43.2695236 L32.405123,38.2043433 L35.3298612,33.1384016 C35.6778448,32.5353314 35.6778448,31.792154 35.3298612,31.1890838 C34.9818774,30.5860136 34.3384503,30.214425 33.6417214,30.214425 L27.7922454,30.214425 L24.8682688,25.1492446 C24.5195236,24.5461745 23.8760965,24.1745858 23.180129,24.1745858 C22.4834004,24.1745858 21.8399731,24.5461745 21.4919895,25.1492446 L18.5672515,30.214425 L12.7177754,30.214425 C12.021808,30.214425 11.3776195,30.5860136 11.0296357,31.1890838 C10.681652,31.792154 10.681652,32.5353314 11.0296357,33.1384016 L13.9543739,38.2035819 L11.0296357,43.2695236 C10.681652,43.8725938 10.681652,44.6157712 11.0296357,45.2188413 Z M17.8933663,37.228923 L16.0940546,34.1130604 L19.692678,34.1130604 C20.3894066,34.1130604 21.0328339,33.7414717 21.3808175,33.1384016 L23.1793676,30.022539 L24.9786793,33.1384016 C25.326663,33.7414717 25.9700901,34.1130604 26.6668189,34.1130604 L30.2654423,34.1130604 L28.4661306,37.228923 C28.1173856,37.8319932 28.1173856,38.5751706 28.4661306,39.1782407 L30.2654423,42.2948647 L26.6668189,42.2948647 C25.9700901,42.2948647 25.326663,42.6664534 24.9786793,43.2695236 L23.1793676,46.3853862 L21.3808175,43.2695236 C21.0328339,42.6664534 20.3894066,42.2948647 19.692678,42.2948647 L16.0940546,42.2948647 L17.8933663,39.1782407 C18.2413499,38.5751706 18.2413499,37.8319932 17.8933663,37.228923 Z" id="Shape"></path>
            <path d="M88.777717,27.5127924 C88.777717,26.4368604 87.9050926,25.5634747 86.8283992,25.5634747 L51.8929704,25.5634747 C50.8162768,25.5634747 49.9436526,26.4368604 49.9436526,27.5127924 L49.9436526,37.3507554 C49.9436526,38.4274487 50.8162768,39.3000731 51.8929704,39.3000731 L86.8283992,39.3000731 C87.9050926,39.3000731 88.777717,38.4274487 88.777717,37.3507554 L88.777717,27.5127924 Z M84.8790815,35.4014376 L53.8422881,35.4014376 L53.8422881,29.4621101 L84.8790815,29.4621101 L84.8790815,35.4014376 Z" id="Shape"></path>
            <path d="M0.329708772,64.5582055 C0.784295906,65.2526499 1.67367212,65.5739827 2.46862807,65.3531616 C3.28718928,65.1254873 3.87503041,64.3746955 3.89711267,63.5241532 C3.94356121,61.7872807 1.74372554,60.8682078 0.541392593,62.1291727 C-0.0807138402,62.7824988 -0.172849708,63.8058906 0.329708772,64.5582055 Z" id="Path"></path>
        </g>
    </g>
</svg>