<?xml version="1.0" encoding="UTF-8"?>
<svg width="100px" height="100px" viewBox="0 0 100 100" version="1.1" xmlns="http://www.w3.org/2000/svg" xmlns:xlink="http://www.w3.org/1999/xlink">
    <!-- Generator: Sketch 57 (83077) - https://sketch.com -->
    <title>globalization</title>
    <desc>Created with Sketch.</desc>
    <g id="Styleguide" stroke="none" stroke-width="1" fill="none" fill-rule="evenodd">
        <g id="Artboard" fill="#15B7DD" fill-rule="nonzero">
            <g id="globalization">
                <path d="M79.5048387,53.6983871 L81.7854839,55.9790323 L83.5854839,54.1790323 C81.516129,70.8870968 67.2580645,83.8709677 50,83.8709677 C48.4903226,83.8709677 46.9693548,83.7693548 45.4774194,83.5709677 L45.0516129,86.7677419 C46.683871,86.9870968 48.35,87.0967742 50,87.0967742 C69.2048387,87.0967742 85.0451613,72.4290323 86.9112903,53.7080645 L89.1822581,55.9790323 L91.4629032,53.6983871 L85.483871,47.7193548 L79.5048387,53.6983871 Z" id="Path"></path>
                <path d="M49.1080645,17.9112903 L46.5177419,16.616129 C47.6854839,16.3419355 48.8580645,16.1290323 50,16.1290323 C53.1145161,16.1290323 56.1951613,16.55 59.1596774,17.3806452 L60.0290323,14.2741935 C56.7822581,13.3645161 53.4064516,12.9032258 50,12.9032258 C48.2467742,12.9032258 46.5822581,13.2532258 44.9693548,13.6693548 L46.6048387,10.3983871 L43.7193548,8.95483871 L39.7725806,16.85 L47.6677419,20.7967742 L49.1080645,17.9112903 Z" id="Path"></path>
                <path d="M8.95645161,56.2822581 L16.8516129,60.2290323 L20.7983871,52.333871 L17.9129032,50.8903226 L16.5274194,53.6612903 C16.2935484,52.6935484 16.1290323,51.5693548 16.1290323,50 C16.1290323,47.3629032 16.4322581,44.7370968 17.033871,42.1951613 L13.8935484,41.4548387 C13.2354839,44.2387097 12.9032258,47.1145161 12.9032258,50 C12.9032258,52.1854839 13.1870968,53.7064516 13.5322581,54.9629032 L10.4,53.3967742 L8.95645161,56.2822581 Z" id="Path"></path>
                <path d="M80.6451613,3.22580645 C69.9725806,3.22580645 61.2903226,11.9080645 61.2903226,22.5806452 C61.2903226,23.4435484 61.366129,24.2887097 61.4774194,25.1225806 C57.883871,23.4564516 53.9774194,22.5806452 50,22.5806452 C45.566129,22.5806452 41.3887097,23.6629032 37.6790323,25.5387097 C38.3370968,23.5935484 38.7096774,21.5193548 38.7096774,19.3548387 C38.7096774,8.68225806 30.0274194,0 19.3548387,0 C8.68225806,0 0,8.68225806 0,19.3548387 C0,30.0274194 8.68225806,38.7096774 19.3548387,38.7096774 C21.5193548,38.7096774 23.5935484,38.3370968 25.5387097,37.6790323 C23.6629032,41.3887097 22.5806452,45.566129 22.5806452,50 C22.5806452,53.9774194 23.4564516,57.883871 25.1225806,61.4774194 C24.2887097,61.366129 23.4435484,61.2903226 22.5806452,61.2903226 C11.9080645,61.2903226 3.22580645,69.9725806 3.22580645,80.6451613 C3.22580645,91.3177419 11.9080645,100 22.5806452,100 C33.2532258,100 41.9354839,91.3177419 41.9354839,80.6451613 C41.9354839,79.0322581 41.716129,77.4741935 41.3419355,75.9758065 C44.1354839,76.9177419 47.0322581,77.4193548 50,77.4193548 C65.1193548,77.4193548 77.4193548,65.1193548 77.4193548,50 C77.4193548,47.0322581 76.9177419,44.1354839 75.9758065,41.3419355 C77.4741935,41.716129 79.0322581,41.9354839 80.6451613,41.9354839 C91.3177419,41.9354839 100,33.2532258 100,22.5806452 C100,11.9080645 91.3177419,3.22580645 80.6451613,3.22580645 Z M80.6451613,6.4516129 C89.5387097,6.4516129 96.7741935,13.6870968 96.7741935,22.5806452 C96.7741935,25.8983871 95.7645161,28.983871 94.0403226,31.5516129 C92.5516129,27.9241935 89.6725806,25.0919355 86.0967742,23.6467742 C87.6919355,22.1725806 88.7096774,20.0806452 88.7096774,17.7419355 C88.7096774,13.2951613 85.0919355,9.67741935 80.6451613,9.67741935 C76.1983871,9.67741935 72.5806452,13.2951613 72.5806452,17.7419355 C72.5806452,20.0806452 73.5983871,22.1725806 75.1935484,23.6467742 C71.616129,25.0919355 68.7387097,27.9225806 67.25,31.5516129 C65.5258065,28.983871 64.516129,25.8983871 64.516129,22.5806452 C64.516129,13.6870968 71.7516129,6.4516129 80.6451613,6.4516129 Z M75.8064516,17.7419355 C75.8064516,15.0741935 77.9774194,12.9032258 80.6451613,12.9032258 C83.3129032,12.9032258 85.483871,15.0741935 85.483871,17.7419355 C85.483871,20.4096774 83.3129032,22.5806452 80.6451613,22.5806452 C77.9774194,22.5806452 75.8064516,20.4096774 75.8064516,17.7419355 Z M66.2596774,35.483871 L62.3612903,35.483871 C61.2983871,32.2129032 59.8903226,29.4016129 58.2112903,27.2596774 C59.7096774,27.8048387 61.1548387,28.5064516 62.533871,29.3451613 C63.3887097,31.6274194 64.6596774,33.7016129 66.2596774,35.483871 Z M74.1112903,51.6129032 C73.8806452,55.0887097 72.9306452,58.3677419 71.3806452,61.2903226 L63.2612903,61.2903226 C63.9548387,58.3225806 64.3725806,55.0629032 64.4741935,51.6129032 L74.1112903,51.6129032 Z M59.933871,61.2903226 L40.066129,61.2903226 C39.3209677,58.3532258 38.8629032,55.0677419 38.75,51.6129032 L61.2516129,51.6129032 C61.1387097,55.0677419 60.6790323,58.3532258 59.933871,61.2903226 L59.933871,61.2903226 Z M50,74.1935484 C46.4,74.1935484 43.1387097,70.3435484 41.0548387,64.516129 L58.9451613,64.516129 C56.8612903,70.3435484 53.6,74.1935484 50,74.1935484 Z M25.8645161,51.6129032 L35.5258065,51.6129032 C35.6274194,55.0629032 36.0451613,58.3225806 36.7387097,61.2903226 L28.6306452,61.2903226 C27.0354839,58.283871 26.0919355,54.9935484 25.8645161,51.6129032 Z M28.6177419,38.7096774 L36.7370968,38.7096774 C36.0435484,41.6774194 35.6258065,44.9370968 35.5241935,48.3870968 L25.8870968,48.3870968 C26.1193548,44.9112903 27.0693548,41.6322581 28.6177419,38.7096774 L28.6177419,38.7096774 Z M38.7483871,48.3870968 C38.8612903,44.9322581 39.3193548,41.6467742 40.0645161,38.7096774 L59.933871,38.7096774 C60.6790323,41.6467742 61.1370968,44.9322581 61.25,48.3870968 L38.7483871,48.3870968 Z M41.0548387,35.483871 C43.1387097,29.6564516 46.4,25.8064516 50,25.8064516 C53.6,25.8064516 56.8612903,29.6564516 58.9451613,35.483871 L41.0548387,35.483871 Z M41.7774194,27.2758065 C40.1032258,29.416129 38.7,32.2209677 37.6387097,35.483871 L30.6903226,35.483871 C30.9870968,35.0903226 31.2854839,34.7 31.6048387,34.3258065 C32.5983871,33.5112903 33.5112903,32.5983871 34.3258065,31.6048387 C36.5096774,29.7419355 39.0290323,28.2741935 41.7774194,27.2758065 L41.7774194,27.2758065 Z M19.3548387,3.22580645 C28.2483871,3.22580645 35.483871,10.4612903 35.483871,19.3548387 C35.483871,22.6725806 34.4741935,25.7580645 32.75,28.3258065 C31.2612903,24.6983871 28.3822581,21.866129 24.8064516,20.4209677 C26.4016129,18.9467742 27.4193548,16.8548387 27.4193548,14.516129 C27.4193548,10.0693548 23.8016129,6.4516129 19.3548387,6.4516129 C14.9080645,6.4516129 11.2903226,10.0693548 11.2903226,14.516129 C11.2903226,16.8548387 12.3080645,18.9467742 13.9032258,20.4209677 C10.3258065,21.866129 7.4483871,24.6967742 5.95967742,28.3258065 C4.23548387,25.7580645 3.22580645,22.6725806 3.22580645,19.3548387 C3.22580645,10.4612903 10.4612903,3.22580645 19.3548387,3.22580645 Z M14.516129,14.516129 C14.516129,11.8483871 16.6870968,9.67741935 19.3548387,9.67741935 C22.0225806,9.67741935 24.1935484,11.8483871 24.1935484,14.516129 C24.1935484,17.183871 22.0225806,19.3548387 19.3548387,19.3548387 C16.6870968,19.3548387 14.516129,17.183871 14.516129,14.516129 L14.516129,14.516129 Z M19.3548387,35.483871 C15.1290323,35.483871 11.2903226,33.8370968 8.41129032,31.1693548 C9.63709677,26.1467742 14.1096774,22.5806452 19.3548387,22.5806452 C24.5467742,22.5806452 28.9854839,26.0725806 30.2645161,31.0129032 C29.9790323,31.3096774 29.7048387,31.6177419 29.4322581,31.9274194 C26.6693548,34.1467742 23.166129,35.483871 19.3548387,35.483871 Z M11.6370968,92.4596774 C12.8629032,87.4370968 17.3354839,83.8709677 22.5806452,83.8709677 C27.8258065,83.8709677 32.2983871,87.4370968 33.5241935,92.4596774 C30.6451613,95.1274194 26.8064516,96.7741935 22.5806452,96.7741935 C18.3548387,96.7741935 14.516129,95.1274194 11.6370968,92.4596774 Z M17.7419355,75.8064516 C17.7419355,73.1387097 19.9129032,70.9677419 22.5806452,70.9677419 C25.2483871,70.9677419 27.4193548,73.1387097 27.4193548,75.8064516 C27.4193548,78.4741935 25.2483871,80.6451613 22.5806452,80.6451613 C19.9129032,80.6451613 17.7419355,78.4741935 17.7419355,75.8064516 L17.7419355,75.8064516 Z M35.9758065,89.616129 C34.4870968,85.9887097 31.6080645,83.1564516 28.0322581,81.7112903 C29.6274194,80.2370968 30.6451613,78.1451613 30.6451613,75.8064516 C30.6451613,71.3596774 27.0274194,67.7419355 22.5806452,67.7419355 C18.133871,67.7419355 14.516129,71.3596774 14.516129,75.8064516 C14.516129,78.1451613 15.533871,80.2370968 17.1290323,81.7112903 C13.5516129,83.1564516 10.6741935,85.9870968 9.18548387,89.616129 C7.46129032,87.0483871 6.4516129,83.9629032 6.4516129,80.6451613 C6.4516129,71.7516129 13.6870968,64.516129 22.5806452,64.516129 C31.4741935,64.516129 38.7096774,71.7516129 38.7096774,80.6451613 C38.7096774,83.9629032 37.7,87.0483871 35.9758065,89.616129 Z M33.2564516,64.516129 L37.6387097,64.516129 C38.7,67.7806452 40.1048387,70.5870968 41.7806452,72.7274194 C41.1193548,72.4854839 40.4693548,72.1983871 39.8225806,71.8967742 C38.3,68.9080645 36.0354839,66.3612903 33.2564516,64.516129 Z M58.2225806,72.7241935 C59.8967742,70.583871 61.3,67.7790323 62.3612903,64.516129 L69.3096774,64.516129 C66.5080645,68.2322581 62.6725806,71.1080645 58.2225806,72.7241935 Z M74.1016129,48.3870968 L64.4741935,48.3870968 C64.3725806,44.9370968 63.9548387,41.6774194 63.2612903,38.7096774 L69.9677419,38.7096774 C70.5854839,39.1193548 71.2322581,39.4854839 71.8951613,39.8225806 C73.1741935,42.5580645 73.9032258,45.4306452 74.1016129,48.3870968 Z M69.7016129,34.3951613 C70.9274194,29.3725806 75.4,25.8064516 80.6451613,25.8064516 C85.8903226,25.8064516 90.3629032,29.3725806 91.5887097,34.3951613 C88.7096774,37.0629032 84.8709677,38.7096774 80.6451613,38.7096774 C76.4193548,38.7096774 72.5806452,37.0629032 69.7016129,34.3951613 Z" id="Shape"></path>
            </g>
        </g>
    </g>
</svg>