<?xml version="1.0" encoding="UTF-8"?>
<svg width="100px" height="100px" viewBox="0 0 100 100" version="1.1" xmlns="http://www.w3.org/2000/svg" xmlns:xlink="http://www.w3.org/1999/xlink">
    <!-- Generator: Sketch 57 (83077) - https://sketch.com -->
    <title>Artboard</title>
    <desc>Created with Sketch.</desc>
    <g id="Artboard" stroke="none" stroke-width="1" fill="none" fill-rule="evenodd">
        <g id="code-copy-2" fill="#666666" fill-rule="nonzero">
            <path d="M72.4703125,22.8599609 C72.4703125,22.1183594 71.7828125,21.5394531 71.2402344,21.5394531 C71.1136719,21.5394531 70.9869141,21.5574219 70.8964844,21.6298828 L66.3015625,24.6146484 C65.8855469,24.8861328 65.7408203,25.3201172 65.7408203,25.6277344 C65.7408203,25.9353516 65.8855469,26.3695312 66.3015625,26.6410156 L70.8964844,29.6257812 C70.9869141,29.6980469 71.1134766,29.7162109 71.2402344,29.7162109 C71.7828125,29.7162109 72.4703125,29.1373047 72.4703125,28.3955078 C72.4703125,28.0880859 72.34375,27.8166016 72.1447266,27.6900391 L68.9607422,25.6277344 L72.1447266,23.5654297 C72.3435547,23.4388672 72.4703125,23.1675781 72.4703125,22.8599609 Z" id="Path"></path>
            <path d="M81.5699219,16.6732422 C81.2443359,16.6732422 80.9548828,16.8177734 80.8101563,17.1253906 L74.4605469,30.1681641 C74.40625,30.2767578 74.3699219,30.4033203 74.3699219,30.5119141 C74.3699219,30.9640625 74.7679688,31.4707031 75.3832031,31.4707031 C75.7269531,31.4707031 76.0707031,31.2896484 76.1972656,31.0185547 L82.5650391,17.9755859 C82.6191406,17.8669922 82.6373047,17.7404297 82.6373047,17.6318359 C82.6371094,17.053125 82.0763672,16.6732422 81.5699219,16.6732422 Z" id="Path"></path>
            <path d="M90.7058594,24.6146484 L86.1111328,21.6298828 C86.0207031,21.5574219 85.8941406,21.5394531 85.7673828,21.5394531 C85.2246094,21.5394531 84.5371094,22.1183594 84.5371094,22.8599609 C84.5371094,23.1675781 84.6636719,23.4388672 84.8628906,23.5654297 L88.0466797,25.6277344 L84.8628906,27.6900391 C84.6636719,27.8166016 84.5371094,28.0880859 84.5371094,28.3955078 C84.5371094,29.1373047 85.2246094,29.7162109 85.7673828,29.7162109 C85.8939453,29.7162109 86.0207031,29.6980469 86.1111328,29.6257812 L90.7058594,26.6410156 C91.1220703,26.3695312 91.2666016,25.9355469 91.2666016,25.6277344 C91.2666016,25.3203125 91.1220703,24.8861328 90.7058594,24.6146484 Z" id="Path"></path>
            <path d="M92.9589844,7.28320312 L61.4185547,7.28320312 C59.7890625,3.02871094 55.6625,0 50.8416016,0 L29.6869141,0 C23.4447266,0 18.3662109,5.07851562 18.3662109,11.3207031 L18.3662109,24.175 C17.1044922,25.2623047 16.5171875,26.9632812 16.828125,28.675 L17.6595703,33.2515625 C17.9583984,34.8226563 18.7929688,35.6304687 19.4404297,36.03125 C20.1642578,36.4792969 20.9675781,36.6273437 21.7050781,36.6306641 L21.7052734,37.4439453 C21.7052734,41.5703125 24.1125,46.1177734 28.3097656,49.9205078 C29.1,50.6363281 29.9216797,51.2962891 30.7591797,51.8931641 L30.7591797,54.3462891 C30.7591797,55.0939453 30.2255859,55.7355469 29.4904297,55.8722656 C29.4564453,55.8785156 29.4224609,55.8861328 29.3890625,55.8947266 C29.3634766,55.9013672 26.8488281,56.5568359 23.5619141,57.4890625 L12.8201172,57.4890625 C11.6123047,57.4890625 10.4476562,57.9960938 9.62441406,58.8798828 C8.80136719,59.7636719 8.37851563,60.9617187 8.46445312,62.1664062 L8.49394531,62.5804687 C3.6890625,64.9894531 0.666601562,69.3089844 0.378515625,74.21875 C0.37734375,74.2392578 0.3765625,74.2597656 0.376171875,74.2802734 L0.0417788342,94.4445312 C0.0244140625,95.9230469 0.586914062,97.3167969 1.62597656,98.3685547 C2.66542969,99.4207031 4.05214844,100 5.53105469,100 L74.9976562,100 C76.4763672,100 77.8630859,99.4207031 78.9023438,98.36875 C79.9416016,97.3167969 80.5041016,95.9232422 80.4861328,94.4380859 L80.1523438,74.2802734 C80.1519531,74.2597656 80.1511719,74.2392578 80.15,74.21875 C79.8537109,69.1673828 76.6628906,64.7404297 71.6142578,62.3767578 C71.5212891,62.3332031 71.4246094,62.2888672 71.3246094,62.24375 L71.3300781,62.1666016 C71.4158203,60.9619141 70.9929687,59.7638672 70.1701172,58.8800781 C69.346875,57.9962891 68.1820312,57.4892578 66.9744141,57.4892578 L56.9667969,57.4892578 C53.6800781,56.5570313 51.1650391,55.9015625 51.1396484,55.8949219 C51.1060547,55.8863281 51.0722656,55.8787109 51.0382813,55.8724609 C50.3029297,55.7359375 49.7695312,55.0943359 49.7695312,54.3464844 L49.7695312,51.8933594 C50.6070312,51.2964844 51.4287109,50.6365234 52.2189453,49.9207031 C54.8865234,47.5039063 56.8310547,44.7863281 57.8941406,42.0671875 L67.4113281,42.0671875 L65.7490234,48.7769531 C65.471875,49.8958984 65.9160156,51.0271484 66.8808594,51.6582031 C67.3337891,51.9546875 67.8417969,52.1017578 68.3478516,52.1017578 C68.9199219,52.1017578 69.4894531,51.9138672 69.9744141,51.5414063 L82.3080078,42.0671875 L92.9587891,42.0671875 C96.8181641,42.0671875 99.9580078,38.9273438 99.9580078,35.0679688 L99.9580078,14.2824219 C99.9580078,10.4230469 96.8183594,7.28320312 92.9589844,7.28320312 Z M58.8263672,26.7058594 C59.3861328,26.5148437 59.9164062,26.4369141 60.2623047,26.4052734 C60.721875,26.8132812 60.9390625,27.4859375 60.8183594,28.1511719 L59.9914062,32.7041016 C59.8707031,33.3396484 59.6265625,33.490625 59.5462891,33.5402344 C59.3761719,33.6455078 59.1253906,33.6998047 58.8248047,33.7029297 L58.8263672,26.7058594 Z M21.2958984,11.3207031 C21.2958984,6.69394531 25.0601562,2.9296875 29.6869141,2.9296875 L50.8417969,2.9296875 C55.4685547,2.9296875 59.2330078,6.69375 59.2330078,11.3207031 L59.2330078,23.59375 C58.5078125,23.721875 57.6052734,23.9675781 56.7242188,24.4375 L56.7242188,15.5121094 C56.7242188,12.3021484 54.1128906,9.69082031 50.9029297,9.69082031 L46.9443359,9.69082031 C45.5720703,9.69082031 44.23125,10.1691406 43.1685547,11.0376953 L42.7806641,11.3550781 C42.0726563,11.9339844 41.1789062,12.2527344 40.2640625,12.2527344 C39.3494141,12.2527344 38.4556641,11.9339844 37.7478516,11.3552734 L37.359375,11.0375 C36.2970703,10.1691406 34.95625,9.690625 33.5839844,9.690625 L29.6255859,9.690625 C26.415625,9.690625 23.8042969,12.3019531 23.8042969,15.5119141 L23.8042969,24.4375 C22.9232422,23.9673828 22.0207031,23.7214844 21.2955078,23.5935547 L21.2955078,11.3207031 L21.2958984,11.3207031 Z M20.9824219,33.5404297 C20.9021484,33.4908203 20.6582031,33.3398438 20.5394531,32.7160156 L19.7103516,28.1515625 C19.5896484,27.4867187 19.80625,26.8148437 20.2652344,26.4064453 C20.6109375,26.4376953 21.1416016,26.5146484 21.7021484,26.7054687 L21.7041016,33.703125 C21.4037109,33.7 21.1527344,33.6457031 20.9824219,33.5404297 Z M8.02148437,96.009375 C8.02148437,96.3765625 8.07148437,96.7322266 8.16464844,97.0703125 L5.53105469,97.0703125 C4.84140625,97.0703125 4.19492187,96.8001953 3.71035156,96.3095703 C3.22578125,95.8191406 2.96347656,95.1693359 2.97167969,94.4865234 L3.30507812,74.3605469 C3.52128906,70.8431641 5.47070312,67.7941406 8.7234375,65.8 L10.5119141,90.8921875 C10.5447266,91.3527344 10.6494141,91.7929688 10.8142578,92.2025391 C9.19726562,92.7125 8.02148437,94.2261719 8.02148437,96.009375 Z M69.2826172,90.8923828 L71.1,65.3953125 C74.7751953,67.3673828 76.9921875,70.5958984 77.2236328,74.3603516 L77.5568359,94.4800781 C77.5650391,95.1693359 77.3027344,95.8191406 76.8183594,96.3095703 C76.3337891,96.8001953 75.6871094,97.0703125 74.9976563,97.0703125 L72.3640625,97.0703125 C72.4574219,96.7324219 72.5072266,96.3765625 72.5072266,96.009375 C72.5072266,93.9853516 70.9925781,92.3087891 69.0373047,92.0529297 C69.1695313,91.6865234 69.2539063,91.2972656 69.2826172,90.8923828 Z M69.5775391,96.009375 C69.5775391,96.5943359 69.1015625,97.0703125 68.5167969,97.0703125 L12.0119141,97.0703125 C11.4269531,97.0703125 10.9511719,96.5943359 10.9511719,96.009375 C10.9511719,95.4246094 11.4271484,94.9486328 12.0119141,94.9486328 L68.5169922,94.9486328 C69.1017578,94.9488281 69.5775391,95.4246094 69.5775391,96.009375 Z M68.0261719,60.8765625 C68.3009766,61.171875 68.4367187,61.5558594 68.4078125,61.9582031 L66.3603516,90.6841797 C66.3072266,91.4326172 65.6775391,92.0189453 64.9269531,92.0189453 L14.8675781,92.0189453 C14.1169922,92.0189453 13.4875,91.4326172 13.4339844,90.6839844 L11.3865234,61.9583984 C11.3578125,61.5558594 11.4933594,61.171875 11.7683594,60.8767578 C12.0433594,60.5814453 12.4167969,60.4189453 12.8201172,60.4189453 L66.9746094,60.4189453 C67.3775391,60.4189453 67.7513672,60.5814453 68.0261719,60.8765625 Z M48.1267578,57.4892578 L32.4017578,57.4892578 C33.203125,56.6740234 33.6886719,55.5583984 33.6886719,54.3464844 L33.6886719,53.6910156 C35.9986328,54.8865234 38.2935547,55.5574219 40.2642578,55.5574219 C42.2349609,55.5574219 44.5298828,54.8867188 46.8398438,53.6910156 L46.8398438,54.3464844 C46.8398438,55.5583984 47.3253906,56.6740234 48.1267578,57.4892578 Z M50.2519531,47.7496094 C46.9810547,50.7128906 43.0607422,52.6277344 40.2642578,52.6277344 C37.4679687,52.6277344 33.5474609,50.7128906 30.2767578,47.7496094 C26.6912109,44.5011719 24.6347656,40.7451172 24.6347656,37.44375 L24.6322266,28.2146484 C24.6511719,28.2152344 24.6701172,28.2154297 24.6890625,28.2154297 C24.9539062,28.2154297 25.2212891,28.1636719 25.4765625,28.0570312 C26.240625,27.7382812 26.7341797,26.9976562 26.7341797,26.1705078 L26.7341797,15.5121094 C26.7341797,13.9177734 28.03125,12.6205078 29.6257812,12.6205078 L33.5841797,12.6205078 C34.2824219,12.6205078 34.9646484,12.8638672 35.5048828,13.3056641 L35.8935547,13.6234375 C37.1234375,14.6287109 38.6755859,15.1824219 40.2640625,15.1824219 C41.8525391,15.1824219 43.4048828,14.6287109 44.6351562,13.6232422 L45.0230469,13.3058594 C45.5636719,12.8638672 46.2458984,12.6205078 46.9441406,12.6205078 L50.9027344,12.6205078 C52.4970703,12.6205078 53.7943359,13.9177734 53.7943359,15.5121094 L53.7943359,26.1707031 C53.7943359,26.9978516 54.2878906,27.7384766 55.0519531,28.0572266 C55.3253906,28.1714844 55.6128906,28.2228516 55.8960938,28.2150391 L55.89375,37.4441406 C55.8939453,40.7449219 53.8373047,44.5011719 50.2519531,47.7496094 Z M97.0285156,35.0679688 C97.0285156,37.3119141 95.2029297,39.1375 92.9589844,39.1375 L81.8105469,39.1375 C81.4878906,39.1375 81.1740234,39.2441406 80.9183594,39.440625 L68.7683594,48.7736328 L70.7054688,40.9546875 C70.8138672,40.5173828 70.7148438,40.0544922 70.4371094,39.6996094 C70.1595703,39.3449219 69.7339844,39.1375 69.2835938,39.1375 L58.6931641,39.1375 C58.7794922,38.5673828 58.8236328,38.0021484 58.8236328,37.4445313 L58.8238281,36.6308594 C59.5613281,36.6275391 60.3646484,36.4794922 61.0886719,36.0314453 C61.7359375,35.6304688 62.5707031,34.8228516 62.8716797,33.2398438 L63.7007813,28.675 C64.0117188,26.9630859 63.4240234,25.2617188 62.1626953,24.1751953 L62.1626953,11.3207031 C62.1626953,10.9470703 62.1445312,10.5775391 62.1087891,10.2128906 L92.9589844,10.2128906 C95.2029297,10.2128906 97.0285156,12.0384766 97.0285156,14.2824219 L97.0285156,35.0679688 Z" id="Shape"></path>
            <path d="M40.2642578,82.884375 C43.3007812,82.884375 45.7710937,80.4140625 45.7710937,77.3775391 C45.7710937,74.3410156 43.3007812,71.8707031 40.2642578,71.8707031 C37.2277344,71.8707031 34.7574219,74.3410156 34.7574219,77.3775391 C34.7574219,80.4140625 37.2277344,82.884375 40.2642578,82.884375 Z M40.2642578,74.8003906 C41.6853516,74.8003906 42.8414062,75.9564453 42.8414062,77.3775391 C42.8414062,78.7986328 41.6853516,79.9546875 40.2642578,79.9546875 C38.8431641,79.9546875 37.6871094,78.7986328 37.6871094,77.3775391 C37.6871094,75.9564453 38.8431641,74.8003906 40.2642578,74.8003906 Z" id="Shape"></path>
        </g>
    </g>
</svg>