<?xml version="1.0" encoding="UTF-8"?>
<svg width="100px" height="100px" viewBox="0 0 100 100" version="1.1" xmlns="http://www.w3.org/2000/svg" xmlns:xlink="http://www.w3.org/1999/xlink">
    <!-- Generator: Sketch 57 (83077) - https://sketch.com -->
    <title>Artboard</title>
    <desc>Created with Sketch.</desc>
    <g id="Artboard" stroke="none" stroke-width="1" fill="none" fill-rule="evenodd">
        <g id="gear-(1)-copy" fill="#15b4de" fill-rule="nonzero">
            <path d="M81.7854839,69.8274194 L79.1564516,67.1983871 C80.8645161,64.3209677 82.1193548,61.2564516 82.9016129,58.0645161 L85.483871,58.0645161 C86.3758065,58.0645161 87.0967742,57.3435484 87.0967742,56.4516129 L87.0967742,43.5483871 C87.0967742,42.6580645 86.3758065,41.9354839 85.483871,41.9354839 L82.9016129,41.9354839 C82.1193548,38.7435484 80.8629032,35.6806452 79.1564516,32.8016129 L81.7854839,30.1725806 C82.416129,29.5419355 82.416129,28.5225806 81.7854839,27.8919355 L72.1080645,18.2145161 C71.5032258,17.6096774 70.4322581,17.6096774 69.8274194,18.2145161 L67.1983871,20.8435484 C64.3193548,19.1354839 61.2564516,17.8806452 58.0645161,17.0983871 L58.0645161,14.516129 C58.0645161,13.6258065 57.3435484,12.9032258 56.4516129,12.9032258 L43.5483871,12.9032258 C42.6564516,12.9032258 41.9354839,13.6258065 41.9354839,14.516129 L41.9354839,17.0983871 C38.7435484,17.8806452 35.6806452,19.1370968 32.8016129,20.8435484 L30.1725806,18.2145161 C29.8709677,17.9112903 29.4612903,17.7419355 29.0322581,17.7419355 C28.6032258,17.7419355 28.1935484,17.9112903 27.8919355,18.2145161 L18.2145161,27.8919355 C17.583871,28.5225806 17.583871,29.5419355 18.2145161,30.1725806 L20.8435484,32.8016129 C19.1354839,35.6806452 17.8806452,38.7419355 17.0983871,41.9354839 L14.516129,41.9354839 C13.6241935,41.9354839 12.9032258,42.6580645 12.9032258,43.5483871 L12.9032258,56.4516129 C12.9032258,57.3435484 13.6241935,58.0645161 14.516129,58.0645161 L17.0983871,58.0645161 C17.8806452,61.2564516 19.1370968,64.3209677 20.8435484,67.1983871 L18.2145161,69.8274194 C17.583871,70.4580645 17.583871,71.4774194 18.2145161,72.1080645 L27.8919355,81.7854839 C28.5225806,82.416129 29.5419355,82.416129 30.1725806,81.7854839 L32.8016129,79.1564516 C35.6806452,80.8645161 38.7451613,82.1193548 41.9354839,82.9016129 L41.9354839,85.483871 C41.9354839,86.3758065 42.6564516,87.0967742 43.5483871,87.0967742 L56.4516129,87.0967742 C57.3435484,87.0967742 58.0645161,86.3758065 58.0645161,85.483871 L58.0645161,82.9016129 C61.2564516,82.1193548 64.3193548,80.8629032 67.1983871,79.1564516 L69.8274194,81.7854839 C70.4580645,82.416129 71.4774194,82.416129 72.1080645,81.7854839 L81.7854839,72.1080645 C82.416129,71.4774194 82.416129,70.4580645 81.7854839,69.8274194 Z M70.9677419,78.3645161 L68.5774194,75.9741935 C68.0387097,75.4354839 67.2016129,75.3516129 66.5629032,75.7580645 C63.3225806,77.8467742 59.8129032,79.283871 56.1306452,80.0290323 C55.3790323,80.1822581 54.8387097,80.8435484 54.8387097,81.6112903 L54.8387097,83.8709677 L45.1612903,83.8709677 L45.1612903,81.6112903 C45.1612903,80.8435484 44.6209677,80.1822581 43.8693548,80.0306452 C40.1870968,79.283871 36.6774194,77.8467742 33.4370968,75.7596774 C32.7967742,75.3532258 31.9612903,75.4370968 31.4225806,75.9758065 L29.0322581,78.3645161 L21.6354839,70.9677419 L24.0258065,68.5774194 C24.5629032,68.0403226 24.6532258,67.2016129 24.2419355,66.5629032 C22.1548387,63.3258065 20.716129,59.8145161 19.9709677,56.1306452 C19.8177419,55.3790323 19.1564516,54.8387097 18.3887097,54.8387097 L16.1290323,54.8387097 L16.1290323,45.1612903 L18.3887097,45.1612903 C19.1564516,45.1612903 19.8177419,44.6209677 19.9693548,43.8693548 C20.716129,40.1854839 22.1532258,36.6774194 24.2403226,33.4387097 C24.6516129,32.8 24.5612903,31.9612903 24.0241935,31.4241935 L21.6354839,29.0322581 L29.0322581,21.6354839 L31.4225806,24.0274194 C31.9612903,24.566129 32.7967742,24.6532258 33.4370968,24.2435484 C36.6774194,22.1564516 40.1870968,20.7177419 43.8693548,19.9709677 C44.6209677,19.8177419 45.1612903,19.1564516 45.1612903,18.3887097 L45.1612903,16.1290323 L54.8387097,16.1290323 L54.8387097,18.3887097 C54.8387097,19.1564516 55.3790323,19.816129 56.1306452,19.9693548 C59.8129032,20.7177419 63.3225806,22.1548387 66.5629032,24.2419355 C67.2016129,24.6516129 68.0387097,24.5645161 68.5774194,24.0258065 L70.9677419,21.6354839 L78.3645161,29.0322581 L75.9741935,31.4241935 C75.4370968,31.9612903 75.3467742,32.8 75.7580645,33.4387097 C77.8451613,36.6758065 79.283871,40.1854839 80.0290323,43.8693548 C80.1822581,44.6209677 80.8435484,45.1612903 81.6112903,45.1612903 L83.8709677,45.1612903 L83.8709677,54.8387097 L81.6112903,54.8387097 C80.8435484,54.8387097 80.1822581,55.3790323 80.0306452,56.1306452 C79.283871,59.8145161 77.8467742,63.3258065 75.7596774,66.5629032 C75.3483871,67.2016129 75.4387097,68.0403226 75.9758065,68.5774194 L78.3645161,70.9677419 L70.9677419,78.3645161 Z" id="Shape"></path>
            <path d="M50,29.0322581 C38.4387097,29.0322581 29.0322581,38.4387097 29.0322581,50 C29.0322581,61.5612903 38.4387097,70.9677419 50,70.9677419 C61.5612903,70.9677419 70.9677419,61.5612903 70.9677419,50 C70.9677419,38.4387097 61.5612903,29.0322581 50,29.0322581 Z M48.3870968,67.6596774 L48.3870968,58.5516129 C48.3870968,57.8677419 47.9564516,57.2596774 47.3129032,57.0322581 C44.0967742,55.8919355 41.9354839,52.8419355 41.9354839,49.4370968 C41.9354839,46.8645161 43.1709677,44.4935484 45.1612903,42.9967742 L45.1612903,49.4370968 C45.1612903,49.8645161 45.3306452,50.2758065 45.633871,50.5774194 L48.8596774,53.8032258 C49.4903226,54.433871 50.5096774,54.433871 51.1403226,53.8032258 L54.366129,50.5774194 C54.6693548,50.2758065 54.8387097,49.866129 54.8387097,49.4370968 L54.8387097,42.9967742 C56.8290323,44.4935484 58.0645161,46.8645161 58.0645161,49.4370968 C58.0645161,52.8403226 55.9032258,55.8919355 52.6870968,57.0322581 C52.0435484,57.2612903 51.6129032,57.8693548 51.6129032,58.5532258 L51.6129032,67.6612903 C51.0806452,67.7080645 50.5451613,67.7419355 50,67.7419355 C49.4548387,67.7419355 48.9193548,67.7080645 48.3870968,67.6596774 L48.3870968,67.6596774 Z M54.8387097,67.0548387 L54.8387097,59.6290323 C58.7403226,57.7774194 61.2903226,53.816129 61.2903226,49.4387097 C61.2903226,44.6709677 58.266129,40.3967742 53.7645161,38.8032258 C53.2709677,38.6306452 52.7225806,38.7048387 52.2951613,39.0064516 C51.866129,39.3080645 51.6129032,39.7983871 51.6129032,40.3225806 L51.6129032,48.7693548 L50,50.3822581 L48.3870968,48.7693548 L48.3870968,40.3225806 C48.3870968,39.7983871 48.133871,39.3080645 47.7048387,39.0064516 C47.2774194,38.7032258 46.7290323,38.6290323 46.2354839,38.8032258 C41.733871,40.3951613 38.7096774,44.6693548 38.7096774,49.4370968 C38.7096774,53.8145161 41.2596774,57.7758065 45.1612903,59.6274194 L45.1612903,67.0532258 C37.7258065,64.9403226 32.2580645,58.1032258 32.2580645,49.9983871 C32.2580645,40.216129 40.2177419,32.2564516 50,32.2564516 C59.7822581,32.2564516 67.7419355,40.216129 67.7419355,49.9983871 C67.7419355,58.1032258 62.2741935,64.9403226 54.8387097,67.0548387 Z" id="Shape"></path>
            <path d="M50,0 C49.4403226,0 48.8870968,0.00806451613 48.3322581,0.0274193548 L48.4419355,3.2516129 C48.9580645,3.23387097 49.4790323,3.22580645 50,3.22580645 C75.7903226,3.22580645 96.7741935,24.2080645 96.7741935,50 C96.7741935,50.5225806 96.7645161,51.0419355 96.7483871,51.5612903 L99.9709677,51.6645161 C99.9903226,51.1112903 100,50.5564516 100,50 C100,22.4306452 77.5709677,0 50,0 Z" id="Path"></path>
            <path d="M10.283871,25.2790323 L7.55,23.5693548 C6.97096774,24.4967742 6.41935484,25.4483871 5.90967742,26.3967742 L8.75483871,27.9177419 C9.23548387,27.0209677 9.74677419,26.1403226 10.283871,25.2790323 L10.283871,25.2790323 Z" id="Path"></path>
            <path d="M5.24354839,36.366129 L2.15645161,35.4274194 C1.83870968,36.4741935 1.55322581,37.5387097 1.31129032,38.5854839 L4.4516129,39.3145161 C4.68225806,38.3193548 4.94677419,37.3354839 5.24354839,36.366129 Z" id="Path"></path>
            <path d="M7.39677419,30.6580645 L4.46129032,29.3225806 C4.00967742,30.3177419 3.58709677,31.3322581 3.20967742,32.3387097 L6.22741935,33.4741935 C6.58548387,32.5209677 6.97741935,31.5822581 7.39677419,30.6580645 L7.39677419,30.6580645 Z" id="Path"></path>
            <path d="M13.85,20.3177419 L11.3580645,18.2677419 C10.666129,19.1080645 9.99677419,19.9806452 9.36774194,20.8580645 L11.9887097,22.7370968 C12.5822581,21.9096774 13.2032258,21.1032258 13.85,20.3177419 L13.85,20.3177419 Z" id="Path"></path>
            <path d="M3.85483871,42.3145161 L0.672580645,41.7919355 C0.496774194,42.8596774 0.353225806,43.9403226 0.24516129,45.0306452 L3.45483871,45.3467742 C3.55645161,44.3241935 3.69032258,43.3145161 3.85483871,42.3145161 L3.85483871,42.3145161 Z" id="Path"></path>
            <path d="M39.3580645,4.44193548 L38.6274194,1.3 C37.5580645,1.55 36.4951613,1.83387097 35.4693548,2.14677419 L36.4080645,5.23225806 C37.3790323,4.93709677 38.3629032,4.67258065 39.3580645,4.44193548 L39.3580645,4.44193548 Z" id="Path"></path>
            <path d="M45.3870968,3.45 L45.0725806,0.240322581 C43.9822581,0.346774194 42.9016129,0.488709677 41.833871,0.664516129 L42.3564516,3.8483871 C43.3548387,3.68225806 44.366129,3.55 45.3870968,3.45 L45.3870968,3.45 Z" id="Path"></path>
            <path d="M33.5080645,6.21451613 L32.3709677,3.19677419 C31.3548387,3.57903226 30.3387097,4.0016129 29.35,4.45 L30.6822581,7.38709677 C31.6096774,6.96612903 32.5516129,6.57580645 33.5080645,6.21451613 Z" id="Path"></path>
            <path d="M18.0290323,15.8596774 L15.8241935,13.5032258 C15.0274194,14.2483871 14.2483871,15.0274194 13.5112903,15.816129 L15.8677419,18.0193548 C16.5629032,17.2741935 17.283871,16.5548387 18.0290323,15.8596774 L18.0290323,15.8596774 Z" id="Path"></path>
            <path d="M27.9419355,8.74193548 L26.4177419,5.8983871 C25.4548387,6.41451613 24.5112903,6.96129032 23.5887097,7.53548387 L25.2967742,10.2725806 C26.1596774,9.73548387 27.0435484,9.22580645 27.9419355,8.74193548 Z" id="Path"></path>
            <path d="M22.7532258,11.9758065 L20.8693548,9.35645161 C19.9854839,9.99354839 19.1209677,10.6564516 18.2806452,11.3467742 L20.3290323,13.8403226 C21.116129,13.1935484 21.9241935,12.5709677 22.7532258,11.9758065 L22.7532258,11.9758065 Z" id="Path"></path>
            <path d="M50,96.7741935 C24.2096774,96.7741935 3.22580645,75.7903226 3.22580645,50 C3.22580645,49.4774194 3.23548387,48.9580645 3.2516129,48.4387097 L0.0290322581,48.3354839 C0.00967741935,48.8887097 0,49.4435484 0,50 C0,77.5709677 22.4290323,100 50,100 C50.5580645,100 51.1112903,99.9903226 51.6645161,99.9709677 L51.5612903,96.7483871 C51.0419355,96.7645161 50.5225806,96.7741935 50,96.7741935 Z" id="Path"></path>
            <path d="M86.15,79.683871 L88.6419355,81.7322581 C89.333871,80.8919355 89.9983871,80.0258065 90.6322581,79.1435484 L88.0112903,77.2629032 C87.4177419,78.0887097 86.7967742,78.8967742 86.15,79.683871 L86.15,79.683871 Z" id="Path"></path>
            <path d="M89.7145161,74.7209677 L92.4516129,76.4290323 C93.0290323,75.5016129 93.5806452,74.55 94.0903226,73.6016129 L91.2451613,72.0806452 C90.7645161,72.9774194 90.2532258,73.8580645 89.7145161,74.7209677 Z" id="Path"></path>
            <path d="M96.1467742,57.6870968 L99.3290323,58.2096774 C99.5048387,57.1403226 99.6483871,56.0612903 99.7564516,54.9725806 L96.5467742,54.6548387 C96.4451613,55.6741935 96.3112903,56.6870968 96.1467742,57.6870968 Z" id="Path"></path>
            <path d="M92.6032258,69.3403226 L95.5387097,70.6758065 C95.9903226,69.683871 96.4112903,68.6677419 96.7903226,67.6596774 L93.7725806,66.5225806 C93.4145161,67.4774194 93.0225806,68.4177419 92.6032258,69.3403226 L92.6032258,69.3403226 Z" id="Path"></path>
            <path d="M94.7564516,63.633871 L97.8435484,64.5725806 C98.1596774,63.5290323 98.4451613,62.466129 98.6887097,61.416129 L95.5483871,60.6854839 C95.3177419,61.6790323 95.0532258,62.6645161 94.7564516,63.633871 Z" id="Path"></path>
            <path d="M81.9709677,84.1435484 L84.1758065,86.4967742 C84.9709677,85.7516129 85.7435484,84.9822581 86.4870968,84.1870968 L84.133871,81.9822581 C83.4370968,82.7258065 82.716129,83.4451613 81.9709677,84.1435484 L81.9709677,84.1435484 Z" id="Path"></path>
            <path d="M77.2467742,88.0209677 L79.1306452,90.6419355 C80.0145161,90.0048387 80.8790323,89.3419355 81.7177419,88.6532258 L79.6725806,86.1580645 C78.883871,86.8032258 78.0758065,87.4258065 77.2467742,88.0209677 L77.2467742,88.0209677 Z" id="Path"></path>
            <path d="M60.6435484,95.5596774 L61.3709677,98.7 C62.4387097,98.4532258 63.5,98.1693548 64.5306452,97.8564516 L63.5919355,94.7693548 C62.6225806,95.0645161 61.6387097,95.3290323 60.6435484,95.5596774 Z" id="Path"></path>
            <path d="M54.6129032,96.55 L54.9274194,99.7596774 C56.0193548,99.6532258 57.1,99.5112903 58.166129,99.333871 L57.6435484,96.1516129 C56.6435484,96.3177419 55.6322581,96.45 54.6129032,96.55 L54.6129032,96.55 Z" id="Path"></path>
            <path d="M72.0580645,91.2580645 L73.5822581,94.1 C74.5435484,93.5854839 75.4887097,93.0387097 76.4096774,92.4629032 L74.7048387,89.7258065 C73.8403226,90.2629032 72.9580645,90.7741935 72.0580645,91.2580645 Z" id="Path"></path>
            <path d="M66.4919355,93.7854839 L67.6290323,96.8032258 C68.6451613,96.4209677 69.6612903,96 70.65,95.55 L69.3177419,92.6145161 C68.3903226,93.033871 67.4483871,93.4258065 66.4919355,93.7854839 L66.4919355,93.7854839 Z" id="Path"></path>
        </g>
    </g>
</svg>