<?xml version="1.0" encoding="UTF-8"?>
<svg width="100px" height="100px" viewBox="0 0 100 100" version="1.1" xmlns="http://www.w3.org/2000/svg" xmlns:xlink="http://www.w3.org/1999/xlink">
    <!-- Generator: Sketch 57 (83077) - https://sketch.com -->
    <title>Artboard</title>
    <desc>Created with Sketch.</desc>
    <g id="Artboard" stroke="none" stroke-width="1" fill="none" fill-rule="evenodd">
        <g id="document-copy" transform="translate(11.000000, 0.000000)" fill="#666666" fill-rule="nonzero">
            <path d="M0.0192223199,11.666575 L0.0192223199,98.3331503 C0.0192223199,99.253762 0.765460281,100 1.68607206,100 L65.019497,100 C65.9394221,100 66.6856601,99.253762 66.6856601,98.3331503 L66.6856601,28.3336995 C66.6856601,28.2966278 66.6678109,28.2650483 66.6643782,28.2286633 C66.6561402,28.0824362 66.6273067,27.9382689 66.579251,27.8002801 C66.5607151,27.7467322 66.5476714,27.6952439 66.5243301,27.6430689 C66.4433216,27.4618299 66.3307337,27.2963807 66.1906854,27.1549594 L49.5242476,10.4885216 C49.3828262,10.3477866 49.2166905,10.2351988 49.0340784,10.154877 C48.9839631,10.1335951 48.9331613,10.1157459 48.8809863,10.0999561 C48.7416246,10.0519002 48.5967707,10.0230668 48.4491707,10.0134555 C48.4210237,10.0182612 48.3880712,10.000412 48.3530591,10.000412 L1.68607206,10.000412 C0.765460281,10.000412 0.0192223199,10.7459633 0.0192223199,11.666575 Z M60.9958534,26.6668497 L50.0192223,26.6668497 L50.0192223,15.6902186 L60.9958534,26.6668497 Z M3.35223533,13.333425 L46.6862093,13.333425 L46.6862093,28.3336995 C46.6862093,29.2536248 47.4324473,29.9998627 48.3523726,29.9998627 L63.3526471,29.9998627 L63.3526471,96.666987 L3.35223533,96.666987 L3.35223533,13.333425 Z" id="Shape"></path>
            <path d="M70.0193596,86.666575 L70.0193596,89.999588 L75.0192223,89.999588 C75.9398341,89.999588 76.6860721,89.2540367 76.6860721,88.333425 L76.6860721,1.66684974 C76.6860721,0.746237961 75.9398341,5.68434189e-14 75.0192223,5.68434189e-14 L11.6857975,5.68434189e-14 C10.7651856,5.68434189e-14 10.0189476,0.746237961 10.0189476,1.66684974 L10.0189476,6.66671248 L13.3526471,6.66671248 L13.3526471,3.33301301 L73.3523726,3.33301301 L73.3523726,86.666575 L70.0193596,86.666575 Z" id="Path"></path>
            <polygon id="Path" points="13.3526471 33.3335622 53.3522353 33.3335622 53.3522353 36.666575 13.3526471 36.666575"></polygon>
            <polygon id="Path" points="13.3526471 23.3331503 26.6860721 23.3331503 26.6860721 26.6668497 13.3526471 26.6668497"></polygon>
            <polygon id="Path" points="13.3526471 43.3332875 40.019497 43.3332875 40.019497 46.666987 13.3526471 46.666987"></polygon>
            <polygon id="Path" points="43.3525098 43.3332875 53.3522353 43.3332875 53.3522353 46.666987 43.3525098 46.666987"></polygon>
            <polygon id="Path" points="13.3526471 53.333013 53.3522353 53.333013 53.3522353 56.6667125 13.3526471 56.6667125"></polygon>
            <polygon id="Path" points="13.3526471 73.3331503 53.3522353 73.3331503 53.3522353 76.6668497 13.3526471 76.6668497"></polygon>
            <polygon id="Path" points="28.3522353 63.333425 53.3522353 63.333425 53.3522353 66.6664378 28.3522353 66.6664378"></polygon>
            <polygon id="Path" points="13.3526471 63.333425 25.0192223 63.333425 25.0192223 66.6664378 13.3526471 66.6664378"></polygon>
            <polygon id="Path" points="13.3526471 83.3335622 20.0193596 83.3335622 20.0193596 86.666575 13.3526471 86.666575"></polygon>
            <polygon id="Path" points="23.3523726 83.3335622 53.3522353 83.3335622 53.3522353 86.666575 23.3523726 86.666575"></polygon>
        </g>
    </g>
</svg>