<?xml version="1.0" encoding="UTF-8"?>
<svg width="100px" height="100px" viewBox="0 0 100 100" version="1.1" xmlns="http://www.w3.org/2000/svg" xmlns:xlink="http://www.w3.org/1999/xlink">
    <!-- Generator: Sketch 57 (83077) - https://sketch.com -->
    <title>Artboard</title>
    <desc>Created with Sketch.</desc>
    <g id="Artboard" stroke="none" stroke-width="1" fill="none" fill-rule="evenodd">
        <g id="web-copy" transform="translate(0.000000, 1.000000)" fill="#15b4de" fill-rule="nonzero">
            <path d="M76.5519531,69.7464844 C75.4642578,69.7464844 74.5824219,70.6283203 74.5824219,71.7162109 L74.5824219,81.7345703 C74.5824219,82.8224609 75.4642578,83.7042969 76.5519531,83.7042969 C77.6396484,83.7042969 78.5214844,82.8224609 78.5214844,81.7345703 L78.5214844,71.7162109 C78.5214844,70.6283203 77.6396484,69.7464844 76.5519531,69.7464844 Z" id="Path"></path>
            <path d="M76.5519531,59.6119141 C75.4642578,59.6119141 74.5824219,60.4992188 74.5824219,61.5871094 C74.5824219,62.675 75.4642578,63.5568359 76.5519531,63.5568359 C77.6396484,63.5568359 78.5214844,62.675 78.5214844,61.5871094 L78.5214844,61.5759766 C78.5214844,60.4882813 77.6396484,59.6119141 76.5519531,59.6119141 Z" id="Path"></path>
            <path d="M95.6433594,58.0513672 L95.6433594,8.58261719 C95.6433594,3.95722656 91.8816406,0.194335938 87.2580078,0.194335938 L76.9726562,0.194335938 C75.8849609,0.194335938 75.003125,1.07617188 75.003125,2.1640625 C75.003125,3.25195313 75.8849609,4.13378906 76.9726562,4.13378906 L87.2580078,4.13378906 C89.7095703,4.13378906 91.7042969,6.12949219 91.7042969,8.58261719 L91.7042969,26.9818359 L3.93945312,26.9818359 L3.93945312,8.58261719 C3.93945312,6.12949219 5.93398437,4.13378906 8.38554687,4.13378906 L59.4357422,4.13378906 C60.5234375,4.13378906 61.4052734,3.25195313 61.4052734,2.1640625 C61.4052734,1.07617188 60.5234375,0.194335938 59.4357422,0.194335938 L8.38554687,0.194335938 C3.76171875,0.194335938 0,3.95742188 0,8.58261719 L0,78.2732422 C0,82.8955078 3.76171875,86.6560547 8.38554687,86.6560547 L58.5324219,86.6560547 C62.8380859,91.8234375 69.3171875,95.1181641 76.5519531,95.1181641 C89.48125,95.1181641 100,84.5927734 100,71.6552734 C100,66.5878906 98.3849609,61.890625 95.6433594,58.0513672 Z M8.38554688,82.7166016 C5.93398438,82.7166016 3.93945312,80.7234375 3.93945312,78.2732422 L3.93945312,30.9212891 L91.7042969,30.9212891 L91.7042969,53.7691406 C87.6144531,50.2964844 82.3240234,48.1980469 76.5519531,48.1980469 C63.6195313,48.1980469 53.0984375,58.7208984 53.0984375,71.6552734 C53.0984375,75.6525391 54.1039063,79.4191406 55.8734375,82.7166016 L8.38554688,82.7166016 Z M76.5519531,91.1787109 C65.7917969,91.1787109 57.0376953,82.4207031 57.0376953,71.6552734 C57.0376953,60.8929688 65.7916016,52.1375 76.5519531,52.1375 C87.3091797,52.1375 96.0609375,60.8931641 96.0609375,71.6552734 C96.0609375,82.4205078 87.3089844,91.1787109 76.5519531,91.1787109 Z" id="Shape"></path>
            <path d="M10.146875,15.5605469 C10.146875,19.2880859 13.1785156,22.3207031 16.9048828,22.3207031 C20.63125,22.3207031 23.6628906,19.2880859 23.6628906,15.5605469 C23.6628906,11.8330078 20.63125,8.80039063 16.9048828,8.80039063 C13.1785156,8.80058594 10.146875,11.8332031 10.146875,15.5605469 L10.146875,15.5605469 Z M19.7236328,15.5605469 C19.7236328,17.1160156 18.4591797,18.38125 16.9050781,18.38125 C15.3507813,18.38125 14.0863281,17.1160156 14.0863281,15.5605469 C14.0863281,14.0050781 15.3507813,12.7398438 16.9050781,12.7398438 C18.4591797,12.7400391 19.7236328,14.0052734 19.7236328,15.5605469 L19.7236328,15.5605469 Z" id="Shape"></path>
            <path d="M29.3003906,15.5605469 C29.3003906,19.2880859 32.3294922,22.3207031 36.0529297,22.3207031 C39.7792969,22.3207031 42.8109375,19.2880859 42.8109375,15.5605469 C42.8109375,11.8330078 39.7792969,8.80039063 36.0529297,8.80039063 C32.3294922,8.80058594 29.3003906,11.8332031 29.3003906,15.5605469 L29.3003906,15.5605469 Z M38.8714844,15.5605469 C38.8714844,17.1160156 37.6070313,18.38125 36.0527344,18.38125 C34.5015625,18.38125 33.2396484,17.1160156 33.2396484,15.5605469 C33.2396484,14.0050781 34.5015625,12.7398438 36.0527344,12.7398438 C37.6070313,12.7400391 38.8714844,14.0052734 38.8714844,15.5605469 L38.8714844,15.5605469 Z" id="Shape"></path>
            <path d="M52.1904297,15.5605469 C52.1904297,19.2880859 55.2220703,22.3207031 58.9484375,22.3207031 L78.7382812,22.3207031 C82.4646484,22.3207031 85.4962891,19.2880859 85.4962891,15.5605469 C85.4962891,11.8330078 82.4646484,8.80039063 78.7382812,8.80039063 L58.9484375,8.80039063 C55.2220703,8.80058594 52.1904297,11.8332031 52.1904297,15.5605469 L52.1904297,15.5605469 Z M81.5574219,15.5605469 C81.5574219,17.1160156 80.2929687,18.38125 78.7384766,18.38125 L58.9484375,18.38125 C57.3941406,18.38125 56.1294922,17.1160156 56.1294922,15.5605469 C56.1294922,14.0050781 57.3939453,12.7398438 58.9484375,12.7398438 L78.7382812,12.7398438 C80.2927734,12.7400391 81.5574219,14.0052734 81.5574219,15.5605469 L81.5574219,15.5605469 Z" id="Shape"></path>
            <path d="M37.2818359,42.6453125 L80.0007813,42.6453125 C81.0884766,42.6453125 81.9703125,41.7634766 81.9703125,40.6755859 C81.9703125,39.5876953 81.0884766,38.7058594 80.0007813,38.7058594 L37.2818359,38.7058594 C36.1939453,38.7058594 35.3121094,39.5876953 35.3121094,40.6755859 C35.3121094,41.7634766 36.1939453,42.6453125 37.2818359,42.6453125 Z" id="Path"></path>
            <path d="M15.6373047,42.6453125 L27.5169922,42.6453125 C28.6048828,42.6453125 29.4867188,41.7634766 29.4867188,40.6755859 C29.4867188,39.5876953 28.6048828,38.7058594 27.5169922,38.7058594 L15.6373047,38.7058594 C14.5494141,38.7058594 13.6675781,39.5876953 13.6675781,40.6755859 C13.6675781,41.7634766 14.5494141,42.6453125 15.6373047,42.6453125 Z" id="Path"></path>
            <path d="M56.5835938,51.6796875 C56.5835938,50.5917969 55.7017578,49.7099609 54.6140625,49.7099609 L48.2646484,49.7099609 C47.1767578,49.7099609 46.2949219,50.5917969 46.2949219,51.6796875 C46.2949219,52.7675781 47.1767578,53.6494141 48.2646484,53.6494141 L54.6140625,53.6494141 C55.7017578,53.6494141 56.5835938,52.7675781 56.5835938,51.6796875 Z" id="Path"></path>
            <path d="M15.6373047,53.6494141 L38.4996094,53.6494141 C39.5875,53.6494141 40.4693359,52.7675781 40.4693359,51.6796875 C40.4693359,50.5917969 39.5875,49.7099609 38.4996094,49.7099609 L15.6373047,49.7099609 C14.5494141,49.7099609 13.6675781,50.5917969 13.6675781,51.6796875 C13.6675781,52.7675781 14.5494141,53.6494141 15.6373047,53.6494141 Z" id="Path"></path>
            <path d="M15.6373047,64.6533203 L20.0382813,64.6533203 C21.1261719,64.6533203 22.0080078,63.7714844 22.0080078,62.6835938 C22.0080078,61.5957031 21.1261719,60.7138672 20.0382813,60.7138672 L15.6373047,60.7138672 C14.5494141,60.7138672 13.6675781,61.5957031 13.6675781,62.6835938 C13.6675781,63.7714844 14.5494141,64.6533203 15.6373047,64.6533203 L15.6373047,64.6533203 Z" id="Path"></path>
            <path d="M27.8333984,62.6835938 C27.8333984,63.7714844 28.7152344,64.6533203 29.803125,64.6533203 L44.8490234,64.6533203 C45.9369141,64.6533203 46.81875,63.7714844 46.81875,62.6835938 C46.81875,61.5957031 45.9369141,60.7138672 44.8490234,60.7138672 L29.803125,60.7138672 C28.7152344,60.7138672 27.8333984,61.5957031 27.8333984,62.6835938 Z" id="Path"></path>
            <path d="M45.2808594,71.7125 L39.9611328,71.7125 C38.8732422,71.7125 37.9914063,72.5943359 37.9914063,73.6822266 C37.9914063,74.7701172 38.8732422,75.6519531 39.9611328,75.6519531 L45.2808594,75.6519531 C46.36875,75.6519531 47.2505859,74.7701172 47.2505859,73.6822266 C47.2505859,72.5943359 46.36875,71.7125 45.2808594,71.7125 Z" id="Path"></path>
            <path d="M32.1501953,71.7125 L15.6373047,71.7125 C14.5494141,71.7125 13.6675781,72.5943359 13.6675781,73.6822266 C13.6675781,74.7701172 14.5494141,75.6519531 15.6373047,75.6519531 L32.1503906,75.6519531 C33.2382812,75.6519531 34.1201172,74.7701172 34.1201172,73.6822266 C34.1201172,72.5943359 33.2380859,71.7125 32.1501953,71.7125 Z" id="Path"></path>
            <path d="M68.2041016,4.13378906 L68.2095703,4.13378906 C69.2972656,4.13378906 70.1765625,3.25195312 70.1765625,2.1640625 C70.1765625,1.07617187 69.2917969,0.194335937 68.2041016,0.194335937 C67.1164062,0.194335937 66.2345703,1.07617187 66.2345703,2.1640625 C66.2345703,3.25195312 67.1164062,4.13378906 68.2041016,4.13378906 L68.2041016,4.13378906 Z" id="Path"></path>
        </g>
    </g>
</svg>