<?xml version="1.0" encoding="UTF-8"?>
<svg width="100px" height="100px" viewBox="0 0 100 100" version="1.1" xmlns="http://www.w3.org/2000/svg" xmlns:xlink="http://www.w3.org/1999/xlink">
    <!-- Generator: Sketch 57 (83077) - https://sketch.com -->
    <title>Artboard</title>
    <desc>Created with Sketch.</desc>
    <g id="Artboard" stroke="none" stroke-width="1" fill="none" fill-rule="evenodd">
        <g id="world" fill="#FFFFFF" fill-rule="nonzero">
            <path d="M50.0177029,5.34589518e-07 C30.0114535,-0.00291559682 11.9302197,11.9247908 4.0558183,30.3199962 L3.43261478,30.5266628 L3.67423112,31.2516627 C-6.69360928,56.8279086 5.63069859,85.9681122 31.2016222,96.3381105 C37.1739199,98.7601935 43.558215,100.003527 50.0029143,100.000001 C77.6113302,100.004152 99.9958342,77.6216552 100,50.007493 C100.004166,22.3933308 77.6263271,0.00395940207 50.0177029,5.34589518e-07 Z M89.2289103,75.2091556 L86.661945,72.6433227 L86.661945,66.666657 C86.664861,66.4087404 86.6077896,66.1537404 86.495313,65.9216571 L79.9966667,52.9399925 L79.9966667,46.6666602 C79.9966667,46.109577 79.7185996,45.5891604 79.2551544,45.2799938 L74.2561957,41.946661 C73.8644023,41.6849943 73.3801282,41.6014527 72.9231401,41.716661 L66.8010819,43.2466608 L56.5182238,38.8333281 L55.1035185,28.9199964 L59.0243685,24.999997 L67.4409486,24.999997 L70.2736919,29.2583297 C70.529472,29.6412463 70.932513,29.9014546 71.3867934,29.9766629 L81.3847109,31.6433293 C81.6525717,31.6883293 81.9270979,31.6664543 82.1845443,31.579996 L91.3926262,28.5099965 C99.1158092,43.3339524 98.2897312,61.1633245 89.2289103,75.2091556 Z M82.3561752,16.4233318 L79.6467395,18.2299981 L72.0933129,16.7183317 L67.192667,15.0866653 C66.8927295,14.9847903 66.5698801,14.9718737 66.2628607,15.0499986 L60.0674845,16.5983317 L57.3513836,15.6933319 L59.3642977,11.6666659 L64.9997905,11.6666659 C65.2582783,11.6668742 65.5132252,11.6070825 65.7446353,11.4916659 L71.5101011,8.60833301 C75.480524,10.6812493 79.1330965,13.3129156 82.3561752,16.4233318 Z M31.751716,7.05499993 L35.750883,9.72166617 C35.9475087,9.85249948 36.1695457,9.93999947 36.4024139,9.97833279 L44.4773986,11.3249992 L43.6892294,13.6833322 L39.4817725,15.088332 C39.104976,15.2137486 38.7852509,15.4695819 38.5802936,15.8099985 L33.7946238,23.7866639 L26.1078916,28.3999965 L14.7769185,30.0183296 C13.9556312,30.1343712 13.3449251,30.8370794 13.3438836,31.6666626 L13.3438836,36.6666618 C13.3438836,37.1087451 13.5196803,37.532495 13.8321153,37.844995 L16.6765228,40.6899945 L16.6765228,43.5533274 L9.74463333,38.9299948 L7.23015709,31.384996 C12.0141606,20.4516644 20.7825425,11.7516658 31.751716,7.05499993 Z M27.0077041,61.6999911 L19.4759397,60.191658 L16.6765228,54.6066589 L16.6765228,50.6899929 L22.8852295,44.4799939 L25.1830842,49.0783265 C25.4653171,49.6433264 26.0429051,50.0002013 26.6744402,49.999993 L37.3955404,49.999993 L41.9096001,57.5249918 C42.2107874,58.02645 42.7527578,58.3331167 43.337636,58.333325 L47.9700044,58.333325 L46.8035807,64.1783241 L40.4948948,70.488323 C40.181835,70.8006147 40.0056217,71.2243646 40.0049968,71.6666562 L40.0049968,75.8333222 L34.0062464,80.3333214 C33.5867504,80.6481131 33.3397185,81.1420713 33.3397185,81.6666546 L33.3397185,87.6866536 L31.266817,86.999987 L28.3407598,79.6799882 L28.3407598,63.3333242 C28.3409681,62.541241 27.7835842,61.8583244 27.0077041,61.6999911 Z M21.9987475,87.3210287 C6.28764508,75.5316556 -0.356595935,55.1616588 5.38054236,36.3733285 L6.76525393,40.5266612 C6.8818963,40.8781195 7.11226498,41.1808278 7.42011753,41.3866611 L15.7267206,46.9249935 L13.8321153,48.8216599 C13.5196803,49.1341598 13.3438836,49.5579097 13.3438836,49.999993 L13.3438836,54.9999922 C13.3436753,55.2585338 13.4034545,55.5135338 13.5188472,55.7449921 L16.8514863,62.4116577 C17.0822716,62.8720743 17.5128069,63.1999909 18.01791,63.2999909 L25.0164522,64.698324 L25.0164522,79.9999882 C25.016244,80.2116548 25.0564439,80.4216548 25.1347609,80.6183214 L28.4674001,88.9516534 C28.6498621,89.4068617 29.0235342,89.7587366 29.488854,89.9133199 L34.4878127,91.5799863 C34.6548613,91.636653 34.8298248,91.6658196 35.0060381,91.666653 C35.9262631,91.666653 36.6723577,90.9204031 36.6723577,89.9999866 L36.6723577,82.4999878 L42.6711082,77.9999885 C43.0906041,77.6851969 43.337636,77.1912386 43.337636,76.6666554 L43.337636,72.3566561 L49.5146827,66.1783237 C49.7469259,65.9456154 49.9052263,65.6491571 49.9695879,65.3266572 L51.6359075,56.9933252 C51.8162866,56.090617 51.2309918,55.2127005 50.3284715,55.0322839 C50.2212022,55.0108255 50.1122665,54.9999922 50.0029143,54.9999922 L44.2807729,54.9999922 L39.7667131,47.4749934 C39.4655259,46.9735352 38.9235554,46.6668685 38.3386773,46.6666602 L27.7042257,46.6666602 L24.8414887,40.9216611 C24.601747,40.4420779 24.1460086,40.1070779 23.6167438,40.0216613 C23.0876873,39.930203 22.5475915,40.1047863 22.1720447,40.4883279 L20.0091619,42.6433275 L20.0091619,39.9999946 C20.0091619,39.5579114 19.8333652,39.1341614 19.5209303,38.8216615 L16.6765228,35.9766619 L16.6765228,33.1116624 L26.9110576,31.649996 C27.1308035,31.618121 27.3422178,31.5427043 27.5325948,31.4283293 L35.8641927,26.4283301 C36.097894,26.2879135 36.2936866,26.0920802 36.434074,25.8583302 L41.116432,18.0533315 L45.5305125,16.5799984 C46.0289504,16.4164568 46.4201189,16.0254152 46.5836265,15.5266652 L48.2499461,10.526666 C48.538636,9.65270785 48.0643597,8.70999966 47.1905834,8.42124971 C47.1099752,8.39458305 47.0272841,8.37416639 46.9435515,8.35999972 L37.2988938,6.75166665 L35.6042468,5.62166683 C46.0901876,2.20791738 57.4474053,2.63041731 67.6509049,6.8133333 L64.606539,8.33333306 L58.3345122,8.33333306 C57.6998527,8.32979139 57.1185155,8.68729133 56.8348245,9.25499958 L53.5021854,15.9216652 C53.0916459,16.745415 53.4263679,17.7462482 54.2499463,18.1568731 C54.32014,18.1918731 54.3926249,18.2218731 54.4669844,18.2466648 L59.4659432,19.9133312 C59.7658807,20.0152062 60.0887301,20.0281228 60.3957495,19.9499979 L66.5911257,18.4016648 L71.1301802,19.9133312 C71.1951667,19.9366645 71.2620277,19.9545812 71.3301385,19.9666645 L79.6617364,21.6333309 C80.0949795,21.7216642 80.545719,21.6329142 80.9131424,21.3866643 L84.7056858,18.8566647 C86.572172,20.9360394 88.2495309,23.1777057 89.7179751,25.5549969 L81.5196827,28.2883298 L72.6431984,26.8083301 L69.7104759,22.4083308 C69.4030399,21.9472892 68.8864809,21.6693726 68.3324296,21.6666642 L58.3345122,21.6666642 C57.8925209,21.6666642 57.4688591,21.8424975 57.1564242,22.1549975 L52.1574655,27.1549967 C51.7862928,27.5260383 51.6115375,28.0504132 51.6858971,28.5699965 L53.3522166,40.2366612 C53.4361575,40.8135362 53.8152452,41.3045777 54.3520084,41.531661 L66.0162454,46.5316602 C66.3503425,46.6764519 66.7231815,46.7062435 67.0760247,46.6166602 L73.0264519,45.1283271 L76.6640275,47.5583267 L76.6640275,53.3333258 C76.6611114,53.5912424 76.7181829,53.8462424 76.8306595,54.0783257 L83.3293058,67.0599903 L83.3293058,73.3333226 C83.3293058,73.7754058 83.5051025,74.1991558 83.8175374,74.5116557 L87.303478,77.9999885 C71.8435733,98.6110268 42.6054968,102.784359 21.9987475,87.3210287 Z" id="Shape"></path>
        </g>
    </g>
</svg>