<?xml version="1.0" encoding="UTF-8"?>
<svg width="100px" height="100px" viewBox="0 0 100 100" version="1.1" xmlns="http://www.w3.org/2000/svg" xmlns:xlink="http://www.w3.org/1999/xlink">
    <!-- Generator: Sketch 57 (83077) - https://sketch.com -->
    <title>Artboard</title>
    <desc>Created with Sketch.</desc>
    <g id="Artboard" stroke="none" stroke-width="1" fill="none" fill-rule="evenodd">
        <g id="data-(1)-copy" fill="#666666" fill-rule="nonzero">
            <path d="M11.5158532,36.5327355 C11.8011936,36.8180759 12.1757983,36.9615092 12.5504029,36.9615092 C12.9250077,36.9615092 13.2996125,36.8188389 13.585716,36.5327355 C14.1571598,35.9612916 14.1571598,35.0343165 13.585716,34.4628727 L10.03193,30.9090868 L13.585716,27.3560639 C14.1571598,26.783857 14.1571598,25.857645 13.585716,25.2862011 C13.0142719,24.7147571 12.087297,24.7147571 11.5158532,25.2862011 L6.92751729,29.8745368 C6.65285802,30.1491961 6.49874375,30.521512 6.49874375,30.9090868 C6.49874375,31.2974246 6.65285802,31.6697405 6.92751729,31.9443998 L11.5158532,36.5327355 Z" id="Path"></path>
            <path d="M26.0392252,30.9090868 L22.4854394,34.4628727 C21.9139956,35.0343165 21.9139956,35.9612916 22.4862023,36.5327355 C22.7715429,36.8180759 23.1461474,36.9615092 23.5207522,36.9615092 C23.895357,36.9615092 24.2699618,36.8180759 24.5553022,36.5327355 L29.144401,31.9436367 C29.7158448,31.3721929 29.7158448,30.4452178 29.144401,29.8745368 L24.5553022,25.2854382 C23.9838583,24.7139942 23.0576463,24.7139942 22.4862023,25.2854382 C21.9139956,25.857645 21.9139956,26.783857 22.4862023,27.355301 L26.0392252,30.9090868 Z" id="Path"></path>
            <path d="M15.8539438,36.8600377 C16.0294204,36.9287027 16.2110008,36.9615092 16.3887664,36.9615092 C16.9731804,36.9615092 17.5247876,36.6090297 17.7513816,36.0330081 L21.3562846,26.8555737 C21.6523063,26.1033125 21.2815163,25.2541574 20.529255,24.9581358 C19.7777567,24.6628772 18.9278388,25.0329042 18.6325802,25.7851654 L15.0269142,34.9625999 C14.7316554,35.7148612 15.1016824,36.5647792 15.8539438,36.8600377 Z" id="Path"></path>
            <path d="M8.79062262,45.5476633 L18.6501277,45.5476633 C19.4580838,45.5476633 20.1134514,44.8922957 20.1134514,44.0835767 C20.1134514,43.2756206 19.4580838,42.6202532 18.6501277,42.6202532 L8.79062262,42.6202532 C7.98190384,42.6202532 7.32729913,43.2756206 7.32729913,44.0835767 C7.32729913,44.8922957 7.98190384,45.5476633 8.79062262,45.5476633 Z" id="Path"></path>
            <path d="M41.3583463,42.6202532 L24.0242942,42.6202532 C23.2163383,42.6202532 22.5609707,43.2756206 22.5609707,44.0835767 C22.5609707,44.8922957 23.2163383,45.5476633 24.0242942,45.5476633 L41.3583463,45.5476633 C42.1670653,45.5476633 42.8224329,44.8922957 42.8224329,44.0835767 C42.8224329,43.2756206 42.1670653,42.6202532 41.3583463,42.6202532 Z" id="Path"></path>
            <path d="M8.79062262,51.7206305 L12.9906209,51.7206305 C13.7985769,51.7206305 14.4539444,51.065263 14.4539444,50.256544 C14.4539444,49.4485879 13.7985769,48.7932203 12.9906209,48.7932203 L8.79062262,48.7932203 C7.98190384,48.7932203 7.32729913,49.4485879 7.32729913,50.256544 C7.32729913,51.065263 7.98190384,51.7206305 8.79062262,51.7206305 Z" id="Path"></path>
            <path d="M36.0040164,48.7932203 C35.1952974,48.7932203 34.5406927,49.4485879 34.5406927,50.256544 C34.5406927,51.065263 35.1952974,51.7206305 36.0040164,51.7206305 L38.5613995,51.7206305 C39.3701184,51.7206305 40.025486,51.065263 40.025486,50.256544 C40.025486,49.4485879 39.3701184,48.7932203 38.5613995,48.7932203 L36.0040164,48.7932203 Z" id="Path"></path>
            <path d="M32.1519201,50.256544 C32.1519201,49.4485879 31.4965525,48.7932203 30.6885964,48.7932203 L18.1259864,48.7932203 C17.3172673,48.7932203 16.6626627,49.4485879 16.6626627,50.256544 C16.6626627,51.065263 17.3172673,51.7206305 18.1259864,51.7206305 L30.6885964,51.7206305 C31.4965525,51.7206305 32.1519201,51.065263 32.1519201,50.256544 Z" id="Path"></path>
            <path d="M41.7390546,50.256544 C41.7390546,51.065263 42.3944222,51.7206305 43.2023781,51.7206305 L47.9928937,51.7206305 C48.8016127,51.7206305 49.4569803,51.065263 49.4569803,50.256544 C49.4569803,49.4485879 48.8016127,48.7932203 47.9928937,48.7932203 L43.2023781,48.7932203 C42.3944222,48.7932203 41.7390546,49.4485879 41.7390546,50.256544 Z" id="Path"></path>
            <path d="M33.768595,32.0832552 L38.8215628,32.0832552 C39.6302818,32.0832552 40.2856494,31.4278876 40.2856494,30.6191686 C40.2856494,29.8112125 39.6302818,29.1558451 38.8215628,29.1558451 L33.768595,29.1558451 C32.959876,29.1558451 32.3045086,29.8112125 32.3045086,30.6191686 C32.3045086,31.4278876 32.959876,32.0832552 33.768595,32.0832552 Z" id="Path"></path>
            <path d="M44.4810698,32.0832552 L75.3123364,32.0832552 C76.1210554,32.0832552 76.7756601,31.4278876 76.7756601,30.6191686 C76.7756601,29.8112125 76.1210554,29.1558451 75.3123364,29.1558451 L44.4810698,29.1558451 C43.6723507,29.1558451 43.0169833,29.8112125 43.0169833,30.6191686 C43.0169833,31.4278876 43.6723507,32.0832552 44.4810698,32.0832552 Z" id="Path"></path>
            <path d="M70.6293958,35.5950793 L58.1400281,35.5950793 C57.332072,35.5950793 56.6767046,36.2504467 56.6767046,37.0591659 C56.6767046,37.8671217 57.332072,38.5224893 58.1400281,38.5224893 L70.6293958,38.5224893 C71.4373517,38.5224893 72.0927193,37.8671217 72.0927193,37.0591659 C72.0927193,36.2504467 71.4373517,35.5950793 70.6293958,35.5950793 Z" id="Path"></path>
            <path d="M53.4570875,35.5950793 L49.1640104,35.5950793 C48.3552914,35.5950793 47.7006867,36.2504467 47.7006867,37.0591659 C47.7006867,37.8671217 48.3552914,38.5224893 49.1640104,38.5224893 L53.4570875,38.5224893 C54.2658065,38.5224893 54.920411,37.8671217 54.920411,37.0591659 C54.920411,36.2504467 54.2658065,35.5950793 53.4570875,35.5950793 Z" id="Path"></path>
            <path d="M33.768595,38.5224893 L44.2857566,38.5224893 C45.0937125,38.5224893 45.7490801,37.8671217 45.7490801,37.0591659 C45.7490801,36.2504467 45.0937125,35.5950793 44.2857566,35.5950793 L33.768595,35.5950793 C32.959876,35.5950793 32.3045086,36.2504467 32.3045086,37.0591659 C32.3045086,37.8671217 32.959876,38.5224893 33.768595,38.5224893 Z" id="Path"></path>
            <path d="M30.7069071,54.9143075 L20.848165,54.9143075 C20.0394459,54.9143075 19.3840785,55.5696751 19.3840785,56.3776312 C19.3840785,57.1855871 20.0394459,57.8409547 20.848165,57.8409547 L30.7069071,57.8409547 C31.5148631,57.8409547 32.1702307,57.1855871 32.1702307,56.3776312 C32.1702307,55.5696751 31.5148631,54.9143075 30.7069071,54.9143075 Z" id="Path"></path>
            <path d="M16.3651151,54.9143075 L8.79062262,54.9143075 C7.98190384,54.9143075 7.32729913,55.5696751 7.32729913,56.3776312 C7.32729913,57.1855871 7.98190384,57.8409547 8.79062262,57.8409547 L16.3651151,57.8409547 C17.1738343,57.8409547 17.8284388,57.1855871 17.8284388,56.3776312 C17.8284388,55.5696751 17.1738343,54.9143075 16.3651151,54.9143075 Z" id="Path"></path>
            <path d="M48.5788335,54.9143075 L35.6996023,54.9143075 C34.8908834,54.9143075 34.2362787,55.5696751 34.2362787,56.3776312 C34.2362787,57.1855871 34.8908834,57.8409547 35.6996023,57.8409547 L48.5788335,57.8409547 C49.3867896,57.8409547 50.0421572,57.1855871 50.0421572,56.3776312 C50.0421572,55.5696751 49.3867896,54.9143075 48.5788335,54.9143075 L48.5788335,54.9143075 Z" id="Path"></path>
            <path d="M65.9960465,47.3962728 L58.9533248,47.3962728 C58.1453687,47.3962728 57.4900011,48.0516404 57.4900011,48.8595963 C57.4900011,49.6683153 58.1453687,50.3236829 58.9533248,50.3236829 L65.9960465,50.3236829 C66.8047653,50.3236829 67.45937,49.6683153 67.45937,48.8595963 C67.45937,48.0516404 66.8047653,47.3962728 65.9960465,47.3962728 L65.9960465,47.3962728 Z" id="Path"></path>
            <path d="M78.2168583,50.3236829 L88.1587612,50.3236829 C88.9674801,50.3236829 89.6228477,49.6683153 89.6228477,48.8595963 C89.6228477,48.0516404 88.9674801,47.3962728 88.1587612,47.3962728 L78.2168583,47.3962728 C77.4081393,47.3962728 76.7535346,48.0516404 76.7535346,48.8595963 C76.7535346,49.6683153 77.4089022,50.3236829 78.2168583,50.3236829 Z" id="Path"></path>
            <path d="M73.2455254,47.3962728 L70.9673792,47.3962728 C70.1586604,47.3962728 69.5032928,48.0516404 69.5032928,48.8595963 C69.5032928,49.6683153 70.1586604,50.3236829 70.9673792,50.3236829 L73.2455254,50.3236829 C74.0542444,50.3236829 74.7088489,49.6683153 74.7088489,48.8595963 C74.7088489,48.0516404 74.0542444,47.3962728 73.2455254,47.3962728 Z" id="Path"></path>
            <path d="M58.9533248,66.2722315 L65.9960465,66.2722315 C66.8047653,66.2722315 67.45937,65.617627 67.45937,64.8089078 C67.45937,64.000952 66.8047653,63.3455844 65.9960465,63.3455844 L58.9533248,63.3455844 C58.1453687,63.3455844 57.4900011,64.000952 57.4900011,64.8089078 C57.4900011,65.617627 58.1453687,66.2722315 58.9533248,66.2722315 L58.9533248,66.2722315 Z" id="Path"></path>
            <path d="M78.2168583,66.2722315 L88.1587612,66.2722315 C88.9674801,66.2722315 89.6228477,65.617627 89.6228477,64.8089078 C89.6228477,64.000952 88.9674801,63.3455844 88.1587612,63.3455844 L78.2168583,63.3455844 C77.4081393,63.3455844 76.7535346,64.000952 76.7535346,64.8089078 C76.7535346,65.617627 77.4089022,66.2722315 78.2168583,66.2722315 Z" id="Path"></path>
            <path d="M70.9673792,66.2722315 L73.2455254,66.2722315 C74.0542444,66.2722315 74.709612,65.617627 74.709612,64.8089078 C74.709612,64.000952 74.0542444,63.3455844 73.2455254,63.3455844 L70.9673792,63.3455844 C70.1586604,63.3455844 69.5040557,64.000952 69.5040557,64.8089078 C69.5040557,65.617627 70.1586604,66.2722315 70.9673792,66.2722315 Z" id="Path"></path>
            <path d="M65.9960465,79.2948959 L58.9533248,79.2948959 C58.1453687,79.2948959 57.4900011,79.9502635 57.4900011,80.7582196 C57.4900011,81.5661756 58.1453687,82.2215431 58.9533248,82.2215431 L65.9960465,82.2215431 C66.8047653,82.2215431 67.45937,81.5661756 67.45937,80.7582196 C67.45937,79.9502635 66.8047653,79.2948959 65.9960465,79.2948959 L65.9960465,79.2948959 Z" id="Path"></path>
            <path d="M88.1587612,79.2948959 L78.2168583,79.2948959 C77.4081393,79.2948959 76.7535346,79.9502635 76.7535346,80.7582196 C76.7535346,81.5661756 77.4081393,82.2215431 78.2168583,82.2215431 L88.1587612,82.2215431 C88.9674801,82.2215431 89.6228477,81.5661756 89.6228477,80.7582196 C89.6228477,79.9502635 88.9674801,79.2948959 88.1587612,79.2948959 L88.1587612,79.2948959 Z" id="Path"></path>
            <path d="M73.2455254,79.2948959 L70.9673792,79.2948959 C70.1586604,79.2948959 69.5032928,79.9502635 69.5032928,80.7582196 C69.5032928,81.5661756 70.1586604,82.2215431 70.9673792,82.2215431 L73.2455254,82.2215431 C74.0542444,82.2215431 74.7088489,81.5661756 74.7088489,80.7582196 C74.7088489,79.9502635 74.0542444,79.2948959 73.2455254,79.2948959 Z" id="Path"></path>
            <path d="M93.5596307,0.0976566315 L6.44152301,0.0976566315 C2.89002594,0.0976566315 -2.84217094e-14,2.98691968 -2.84217094e-14,6.53917965 L-2.84217094e-14,77.3532074 C-2.84217094e-14,80.9047045 2.89002594,83.7939676 6.44152301,83.7939676 L11.9492045,83.7939676 C12.7571604,83.7939676 13.412528,83.1393628 13.412528,82.3306439 C13.412528,81.5226878 12.7571604,80.8673202 11.9492045,80.8673202 L6.44152301,80.8673202 C4.50364923,80.8673202 2.92741007,79.2910812 2.92741007,77.3532074 L2.92741007,71.8012754 L56.247168,71.8012754 L56.247168,74.323563 L55.0867326,74.323563 C53.4990492,74.323563 52.2081508,75.6144616 52.2081508,77.2021449 L52.2081508,80.8673202 L20.8474019,80.8673202 C20.0394459,80.8673202 19.3840785,81.5226878 19.3840785,82.3306439 C19.3840785,83.1393628 20.0394459,83.7939676 20.8474019,83.7939676 L34.9191122,83.7939676 L34.9191122,89.0430115 L30.5001496,89.0430115 C27.55214,89.0430115 25.1542119,91.4417025 25.1542119,94.388949 L25.1542119,97.5505824 C25.1542119,98.89565 26.2482715,99.9897093 27.593339,99.9897093 L72.2956621,99.9897093 C73.6407295,99.9897093 74.734789,98.89565 74.734789,97.5505824 L74.734789,94.388949 C74.734789,91.4417025 72.3368609,89.0430115 69.3888513,89.0430115 L64.9698887,89.0430115 L64.9698887,87.1928759 L92.0261163,87.1928759 C93.6130366,87.1928759 94.9039352,85.9019774 94.9039352,84.3142942 L94.9039352,83.6253571 C97.756577,82.9631231 99.8890011,80.4034512 99.8890011,77.3532074 L99.9996279,6.53841656 C99.9996279,2.98691968 97.1111276,0.0976566315 93.5596307,0.0976566315 L93.5596307,0.0976566315 Z M55.1355609,68.3169173 L55.1355609,61.3016615 L91.977288,61.3016615 L91.977288,68.3169173 L55.1355609,68.3169173 Z M59.1738151,58.3742515 L59.1738151,55.2950158 L87.9382709,55.2950158 L87.9382709,58.3742515 L59.1738151,58.3742515 Z M87.9382709,71.2435644 L87.9382709,74.323563 L59.1738151,74.323563 L59.1738151,71.2435644 L87.9382709,71.2435644 Z M37.8457594,83.7939676 L52.2081508,83.7939676 L52.2081508,84.3150571 C52.2081508,85.9019774 53.4990492,87.1928759 55.0867326,87.1928759 L62.0432416,87.1928759 L62.0432416,89.0430115 L37.8457594,89.0430115 L37.8457594,83.7939676 Z M69.3896144,91.9704216 C70.7232376,91.9704216 71.8081418,93.0553256 71.8081418,94.388949 L71.8081418,97.0630624 L28.0808593,97.0630624 L28.0808593,94.388949 C28.0808593,93.0553256 29.1665262,91.9704216 30.5001496,91.9704216 L69.3896144,91.9704216 Z M91.977288,84.2654659 L55.1355609,84.2654659 L55.1355609,77.2509732 L91.977288,77.2509732 L91.977288,84.2654659 Z M96.9623538,77.3532074 C96.9623538,78.7707546 96.1170137,79.9922254 94.9046981,80.5468846 L94.9046981,77.2013818 C94.9046981,75.6144616 93.6130366,74.323563 92.0261163,74.323563 L90.8656809,74.323563 L90.8656809,71.8012754 L96.9623538,71.8012754 L96.9623538,77.3532074 Z M96.9623538,68.8746282 L94.8566326,68.8746282 C94.8863874,68.7090696 94.9046981,61.2528332 94.9046981,61.2528332 C94.9046981,59.6651501 93.6130366,58.3742515 92.0261163,58.3742515 L90.8656809,58.3742515 L90.8656809,55.2950158 L92.0261163,55.2950158 C93.6130366,55.2950158 94.9046981,54.0033543 94.9046981,52.416434 L94.9046981,45.3035217 C94.9046981,43.7166014 93.6130366,42.4249399 92.0261163,42.4249399 L83.759635,42.4249399 C82.950916,42.4249399 82.2963115,43.0803073 82.2963115,43.8890265 C82.2963115,44.6969824 82.950916,45.35235 83.759635,45.35235 L91.977288,45.35235 L91.977288,52.3676057 L55.1355609,52.3676057 L55.1355609,45.35235 L74.6531541,45.35235 C75.4618731,45.35235 76.1164778,44.6969824 76.1164778,43.8890265 C76.1164778,43.0803073 75.4618731,42.4249399 74.6531541,42.4249399 L55.0867326,42.4249399 C53.4990492,42.4249399 52.2081508,43.7166014 52.2081508,45.3035217 L52.2081508,52.416434 C52.2081508,54.0033543 53.4990492,55.2950158 55.0867326,55.2950158 L56.247168,55.2950158 L56.247168,58.3742515 L55.0867326,58.3742515 C53.4990492,58.3742515 52.2081508,59.665913 52.2081508,61.2528332 C52.2081508,61.2528332 52.2264614,68.7090696 52.256216,68.8746282 L2.92741007,68.8746282 L2.92741007,20.0058766 L96.9623538,20.0058766 L96.9623538,68.8746282 Z M96.9623538,17.0784663 L3.0349849,17.0784663 L3.0349849,6.53841656 C3.0349849,4.60130586 4.61122407,3.0250667 6.54909785,3.0250667 L93.448241,3.0250667 C95.3861148,3.0250667 96.9623538,4.60130586 96.9623538,6.53917965 L96.9623538,17.0784663 Z" id="Shape"></path>
            <path d="M10.7933467,5.71520182 C8.42517334,5.71520182 6.49874375,7.64163141 6.49874375,10.0098047 C6.49874375,12.377978 8.42517334,14.3051707 10.7933467,14.3051707 C13.16152,14.3051707 15.0887125,12.377978 15.0887125,10.0098047 C15.0887125,7.64163141 13.16152,5.71520182 10.7933467,5.71520182 Z M10.7933467,11.3777605 C10.0395595,11.3777605 9.42539072,10.7643547 9.42539072,10.0098047 C9.42539072,9.2560176 10.0395595,8.64184899 10.7933467,8.64184899 C11.5478967,8.64184899 12.1613024,9.2560176 12.1613024,10.0098047 C12.1613024,10.7643547 11.5478967,11.3777605 10.7933467,11.3777605 Z" id="Shape"></path>
            <path d="M21.7286005,5.71520182 C19.3604272,5.71520182 17.4332345,7.64163141 17.4332345,10.0098047 C17.4332345,12.377978 19.3604272,14.3051707 21.7286005,14.3051707 C24.0967738,14.3051707 26.0232034,12.377978 26.0232034,10.0098047 C26.0232034,7.64163141 24.0960109,5.71520182 21.7286005,5.71520182 Z M21.7286005,11.3777605 C20.9740505,11.3777605 20.3606448,10.7643547 20.3606448,10.0098047 C20.3606448,9.2560176 20.9740505,8.64184899 21.7286005,8.64184899 C22.4823876,8.64184899 23.0965562,9.2560176 23.0965562,10.0098047 C23.0965562,10.7643547 22.4823876,11.3777605 21.7286005,11.3777605 Z" id="Shape"></path>
            <path d="M32.6630915,5.71520182 C30.2949181,5.71520182 28.3684885,7.64163141 28.3684885,10.0098047 C28.3684885,12.377978 30.2949181,14.3051707 32.6630915,14.3051707 C35.0312648,14.3051707 36.9584573,12.377978 36.9584573,10.0098047 C36.9584573,7.64163141 35.0312648,5.71520182 32.6630915,5.71520182 Z M32.6630915,11.3777605 C31.9093043,11.3777605 31.2951357,10.7643547 31.2951357,10.0098047 C31.2951357,9.2560176 31.9093043,8.64184899 32.6630915,8.64184899 C33.4176415,8.64184899 34.0310472,9.2560176 34.0310472,10.0098047 C34.0310472,10.7643547 33.4176415,11.3777605 32.6630915,11.3777605 Z" id="Shape"></path>
        </g>
    </g>
</svg>