<?xml version="1.0" encoding="UTF-8"?>
<svg width="100px" height="100px" viewBox="0 0 100 100" version="1.1" xmlns="http://www.w3.org/2000/svg" xmlns:xlink="http://www.w3.org/1999/xlink">
    <!-- Generator: Sketch 57 (83077) - https://sketch.com -->
    <title>Artboard</title>
    <desc>Created with Sketch.</desc>
    <g id="Artboard" stroke="none" stroke-width="1" fill="none" fill-rule="evenodd">
        <g id="vietnam" transform="translate(0.000000, 16.000000)" fill="#FFFFFF" fill-rule="nonzero">
            <path d="M92.1762774,0 L4.85169461,0 C2.17193666,0 0,2.18033202 0,4.87044825 L0,63.3121128 C0,66.0014862 2.17193666,68.1818182 4.85169461,68.1818182 L92.1762774,68.1818182 C94.8560354,68.1818182 97.027972,66.0014862 97.027972,63.3121128 L97.027972,4.87044825 C97.027972,2.18033202 94.8560354,0 92.1762774,0 Z M93.7937557,63.3121128 C93.7937557,64.208323 93.0697767,64.9351002 92.1762774,64.9351002 L4.85169461,64.9351002 C3.95819529,64.9351002 3.23421634,64.208323 3.23421634,63.3121128 L3.23421634,4.87044825 C3.23421634,3.97349521 3.95819529,3.24671781 4.85169461,3.24671781 L92.1762774,3.24671781 C93.0697767,3.24671781 93.7937557,3.97349521 93.7937557,4.87044825 L93.7937557,63.3121128 Z" id="Shape"></path>
            <path d="M68.0747866,28.4626799 C67.8054302,27.6335634 67.0707084,27.0465588 66.2048975,26.9681457 L54.3956632,25.8950428 L49.7285874,14.9584516 C49.3840109,14.154952 48.5999746,13.6363636 47.7272973,13.6363636 C46.85462,13.6363636 46.0702715,14.154952 45.7278799,14.9584516 L41.0608041,25.8950428 L29.249697,26.9681457 C28.3838862,27.0481208 27.6507249,27.6351254 27.3798079,28.4626799 C27.1104515,29.2917965 27.3592082,30.2012006 28.0140284,30.7760214 L36.9408682,38.610767 L34.308791,50.2140253 C34.1162152,51.0671969 34.4470585,51.949422 35.1543142,52.4611374 C35.5344719,52.7376137 35.9811104,52.8756957 36.4293095,52.8756957 C36.8144611,52.8756957 37.1999248,52.7732277 37.5441891,52.5670419 L47.7272973,46.4726915 L57.9085328,52.5670419 C58.6554272,53.0137777 59.5945853,52.972853 60.3002803,52.4611374 C61.007536,51.949422 61.3383794,51.0671969 61.1458036,50.2140253 L58.5137264,38.610767 L67.4405662,30.7760214 C68.0950742,30.2012006 68.3441431,29.293671 68.0747866,28.4626799 Z" id="Path"></path>
        </g>
    </g>
</svg>