<?xml version="1.0" encoding="UTF-8"?>
<svg width="100px" height="100px" viewBox="0 0 100 100" version="1.1" xmlns="http://www.w3.org/2000/svg" xmlns:xlink="http://www.w3.org/1999/xlink">
    <!-- Generator: Sketch 57 (83077) - https://sketch.com -->
    <title>Artboard</title>
    <desc>Created with Sketch.</desc>
    <g id="Artboard" stroke="none" stroke-width="1" fill="none" fill-rule="evenodd">
        <g id="comment" fill="#FFFFFF" fill-rule="nonzero">
            <path d="M86.0129064,0.104081042 L13.7100853,0.104081042 C6.15051773,0.104081042 -5.68434189e-14,6.25338137 -5.68434189e-14,13.8141664 L-5.68434189e-14,58.0619833 C-5.68434189e-14,65.6057258 6.12373665,71.7452875 13.6613925,71.7720688 L13.6613925,91.8511811 L42.5173943,71.7720688 L86.0129064,71.7720688 C93.572474,71.7720688 99.7229917,65.6215509 99.7229917,58.0619833 L99.7229917,13.8141664 C99.7229917,6.25338137 93.572474,0.104081042 86.0129064,0.104081042 Z M93.8798476,58.0619833 C93.8798476,62.3993005 90.350832,65.9289247 86.0129064,65.9289247 L40.6841077,65.9289247 L19.5045365,80.6670382 L19.5045365,65.9289247 L13.7100853,65.9289247 C9.37215966,65.9289247 5.84314404,62.3993005 5.84314404,58.0619833 L5.84314404,13.8141664 C5.84314404,9.47563193 9.37215966,5.94722509 13.7100853,5.94722509 L86.0129064,5.94722509 C90.350832,5.94722509 93.8798476,9.47563193 93.8798476,13.8141664 L93.8798476,58.0619833 Z" id="Shape"></path>
            <polygon id="Path" points="26.6903864 20.7504653 73.0326052 20.7504653 73.0326052 26.5936093 26.6903864 26.5936093"></polygon>
            <polygon id="Path" points="26.6903864 33.2158392 73.0326052 33.2158392 73.0326052 39.0589833 26.6903864 39.0589833"></polygon>
            <polygon id="Path" points="26.6903864 45.6812132 73.0326052 45.6812132 73.0326052 51.5243573 26.6903864 51.5243573"></polygon>
        </g>
    </g>
</svg>