<?xml version="1.0" encoding="UTF-8"?>
<svg width="100px" height="100px" viewBox="0 0 100 100" version="1.1" xmlns="http://www.w3.org/2000/svg" xmlns:xlink="http://www.w3.org/1999/xlink">
    <!-- Generator: Sketch 57 (83077) - https://sketch.com -->
    <title>Artboard</title>
    <desc>Created with Sketch.</desc>
    <g id="Artboard" stroke="none" stroke-width="1" fill="none" fill-rule="evenodd">
        <g id="docs" transform="translate(13.000000, 0.000000)" fill="#FFFFFF" fill-rule="nonzero">
            <path d="M70.8137056,30.0514113 C70.8184645,30.046686 44.7397843,4.15202873 44.7397843,4.15202873 C42.15,1.58978075 38.5808376,0 34.6446701,0 L0,0 L0,96.7741935 L75,96.7741935 L75,40.0705645 C75,36.1623614 73.3989213,32.6183846 70.8137056,30.0514113 Z M48.9213198,16.3230847 L58.5609137,25.8946573 L48.9213198,25.8946573 L48.9213198,16.3230847 Z M69.2893401,91.1038306 L5.7106599,91.1038306 L5.7106599,5.6703629 L34.6446701,5.6703629 C39.3679569,5.6703629 43.2106599,9.4859501 43.2106599,14.1759073 L43.2106599,31.5650202 L60.7233503,31.5650202 C65.4466371,31.5650202 69.2893401,35.3806074 69.2893401,40.0705645 L69.2893401,91.1038306 Z" id="Shape"></path>
            <polygon id="Path" points="14.516129 77.4193548 48.3870968 77.4193548 48.3870968 82.2580645 14.516129 82.2580645"></polygon>
            <polygon id="Path" points="14.516129 65.3225806 60.483871 65.3225806 60.483871 70.1612903 14.516129 70.1612903"></polygon>
            <polygon id="Path" points="14.516129 55.6451613 60.483871 55.6451613 60.483871 60.483871 14.516129 60.483871"></polygon>
            <polygon id="Path" points="14.516129 43.5483871 60.483871 43.5483871 60.483871 48.3870968 14.516129 48.3870968"></polygon>
        </g>
    </g>
</svg>