<?xml version="1.0" encoding="UTF-8"?>
<svg width="100px" height="100px" viewBox="0 0 100 100" version="1.1" xmlns="http://www.w3.org/2000/svg" xmlns:xlink="http://www.w3.org/1999/xlink">
    <!-- Generator: Sketch 57 (83077) - https://sketch.com -->
    <title>Artboard</title>
    <desc>Created with Sketch.</desc>
    <g id="Artboard" stroke="none" stroke-width="1" fill="none" fill-rule="evenodd">
        <g id="more-(1)-copy" fill="#000000" fill-rule="nonzero">
            <path d="M94.9255342,44.9648712 L54.9573698,44.9648712 L54.9573698,4.9957918 C54.9573698,2.2385466 52.7188232,0 49.960663,0 C47.2034178,0 44.9648712,2.2385466 44.9648712,4.9957918 L44.9648712,44.9648712 L4.9957918,44.9648712 C2.2385466,44.9648712 -2.84217094e-14,47.2034178 -2.84217094e-14,49.960663 C-2.84217094e-14,52.7188232 2.2385466,54.9573698 4.9957918,54.9573698 L44.9648712,54.9573698 L44.9648712,94.9255342 C44.9648712,97.6836944 47.2034178,99.922241 49.960663,99.922241 C52.7188232,99.922241 54.9573698,97.6836944 54.9573698,94.9255342 L54.9573698,54.9573698 L94.9255342,54.9573698 C97.6836944,54.9573698 99.922241,52.7188232 99.922241,49.960663 C99.922241,47.2034178 97.6836944,44.9648712 94.9255342,44.9648712 Z" id="Path"></path>
        </g>
    </g>
</svg>