<?xml version="1.0" encoding="UTF-8"?>
<svg width="100px" height="100px" viewBox="0 0 100 100" version="1.1" xmlns="http://www.w3.org/2000/svg" xmlns:xlink="http://www.w3.org/1999/xlink">
    <!-- Generator: Sketch 57 (83077) - https://sketch.com -->
    <title>Artboard</title>
    <desc>Created with Sketch.</desc>
    <g id="Artboard" stroke="none" stroke-width="1" fill="none" fill-rule="evenodd">
        <g id="agronomy" transform="translate(-1.000000, 0.000000)" fill="#15B7DD" fill-rule="nonzero">
            <path d="M71.0232422,51.2240234 C70.8507812,50.6349609 70.4080078,50.1539063 69.8195312,49.9386719 C69.7007812,49.8953125 68.7380859,49.5546875 67.2427734,49.3359375 C73.6310547,42.5384766 71.521875,34.596875 71.0232422,33.0458984 C70.8507812,32.4566406 70.4080078,31.9755859 69.8195312,31.7603516 C69.5453125,31.6599609 64.7638672,29.9740234 59.3162109,31.8699219 C59.6238281,30.6080078 59.8037109,29.2207031 59.8037109,27.6984375 C59.8037109,17.9587891 52.428125,13.6779297 50.9480469,12.9179687 C50.4095703,12.6230469 49.7558594,12.5960937 49.1878906,12.8601562 C48.8216797,13.0302734 40.2173828,17.1480469 40.2173828,27.6984375 C40.2173828,29.2238281 40.3980469,30.6140625 40.7068359,31.8779297 C35.2496094,29.9693359 30.4552734,31.6597656 30.1806641,31.7603516 C29.5921875,31.9755859 29.1494141,32.4566406 28.9769531,33.0458984 C28.4783203,34.596875 26.3691406,42.5384766 32.7574219,49.3359375 C31.2621094,49.5546875 30.2994141,49.8953125 30.1806641,49.9386719 C29.5921875,50.1539062 29.1492187,50.6351562 28.9767578,51.2242187 C28.4677734,52.8076172 26.2791016,61.0505859 33.1662109,67.9376953 C37.1517578,71.9232422 41.5751953,72.8740234 44.8892578,72.8740234 C46.1162109,72.8740234 47.1886719,72.7433594 48.0330078,72.5882812 L48.0330078,85.3681641 C48.0330078,86.4466797 48.9074219,87.3212891 49.9861328,87.3212891 C51.0648437,87.3212891 51.9392578,86.4466797 51.9392578,85.3681641 L51.9392578,72.5833984 C52.7875,72.7404297 53.8705078,72.8738281 55.1107422,72.8738281 C58.4246094,72.8738281 62.8486328,71.9226562 66.8337891,67.9375 C73.7208984,61.0501953 71.5322266,52.8074219 71.0232422,51.2240234 Z M48.0330078,66.4998047 C47.9896484,67.3863281 47.8652344,68.1314453 47.7462891,68.6671875 C45.6585937,69.1310547 40.4351562,69.6822266 35.9285156,65.1753906 C31.4896484,60.7369141 31.9548828,55.6 32.4462891,53.3585937 C33.7589844,53.0732422 36.3205078,52.7552734 39.1564453,53.6755859 C39.3431641,53.7455078 39.5292969,53.8115234 39.7144531,53.8730469 C41.2164062,54.4425781 42.7757812,55.3722656 44.2537109,56.85 C47.0699219,59.6662109 47.9109375,62.7619141 48.0330078,65.1966797 L48.0330078,66.4998047 Z M48.0330078,48.321875 C47.9896484,49.2083984 47.8652344,49.9535156 47.7462891,50.4890625 C46.4527344,50.7767578 43.9554687,51.0960937 41.1708984,50.2269531 C40.8886719,50.1181641 40.6080078,50.0191406 40.3292969,49.9294922 C38.8726562,49.3541016 37.3642578,48.4330078 35.9283203,46.9972656 C31.4896484,42.5585937 31.9548828,37.421875 32.4462891,35.1806641 C34.5320312,34.7271484 39.7701172,34.1884766 44.2537109,38.6720703 C44.2822266,38.7005859 44.3080078,38.7292969 44.3359375,38.7576172 C44.5072266,38.9498047 44.6791016,39.1335937 44.8507812,39.3101562 C47.1884766,41.9490234 47.9201172,44.7666016 48.0330078,47.01875 L48.0330078,48.321875 L48.0330078,48.321875 Z M50.0136719,38.5222656 C49.4015625,38.1296875 48.5195312,37.4826172 47.6236328,36.5472656 C47.5322266,36.4470703 47.4398437,36.346875 47.3449219,36.2470703 C45.7130859,34.434375 44.1234375,31.6537109 44.1234375,27.6984375 C44.1234375,21.3318359 48.1976562,18.0285156 50.0005859,16.8785156 C51.9314453,18.1140625 55.8972656,21.4173828 55.8972656,27.6984375 C55.8972656,31.4308594 54.4966797,34.1089844 52.9748047,35.9191406 C52.6583984,36.2359375 52.3623047,36.5558594 52.0832031,36.8773438 C51.3023437,37.6365234 50.5544922,38.1777344 50.0136719,38.5222656 Z M51.9513672,47.6888672 C51.9486328,45.3958984 52.5417969,42.3615234 54.9703125,39.5119141 C55.2580078,39.2259766 55.5472656,38.9183594 55.8339844,38.5876953 C60.3158203,34.1792969 65.4783203,34.7177734 67.5529297,35.1767578 C68.0445312,37.4160156 68.5128906,42.5560547 64.0714844,46.9972656 C62.6382812,48.4306641 61.1328125,49.3509766 59.6787109,49.9267578 C59.3953125,50.0177734 59.1099609,50.1183594 58.8228516,50.2291016 C56.0386719,51.096875 53.5429687,50.7763672 52.2544922,50.4896484 C52.1099609,49.8386719 51.9568359,48.8826172 51.9511719,47.7386719 C51.9511719,47.7220703 51.9513672,47.7054688 51.9513672,47.6888672 Z M64.0714844,65.1753906 C59.5640625,69.6830078 54.3404297,69.1308594 52.2576172,68.66875 C51.8035156,66.5910156 51.2544922,61.3417969 55.7462891,56.85 C57.1833984,55.4128906 58.6929687,54.4916016 60.1507812,53.9162109 C60.4289062,53.8267578 60.7087891,53.7283203 60.9902344,53.6197266 C63.76875,52.7525391 66.2603516,53.0689453 67.5529297,53.3546875 C68.0445312,55.5941406 68.5128906,60.7341797 64.0714844,65.1753906 Z" id="Shape"></path>
            <path d="M60.4210937,1.08808594 C57.0166016,0.366210937 53.5103516,0 50,0 C36.6445312,0 24.0884766,5.20078125 14.6447266,14.6447266 C5.20097656,24.0884766 0,36.6445312 0,50 C0,61.1285156 3.74414062,71.9916016 10.565625,80.7384766 C9.79824219,81.9255859 9.38515625,83.3083984 9.38515625,84.7556641 C9.38515625,86.7380859 10.1572266,88.6017578 11.5589844,90.0037109 C12.9607422,91.4054687 14.8246094,92.1775391 16.8070312,92.1775391 C18.7894531,92.1775391 20.6533203,91.4054687 22.0550781,90.0037109 C23.4570312,88.6017578 24.2289062,86.7380859 24.2289062,84.7556641 C24.2289062,82.7732422 23.4568359,80.9095703 22.0550781,79.5076172 C20.6533203,78.1056641 18.7894531,77.3335937 16.8070312,77.3335937 C15.6320312,77.3335937 14.4994141,77.6068359 13.4792969,78.1197266 C7.29726562,70.0947266 3.90625,60.1681641 3.90625,50 C3.90625,24.5837891 24.5837891,3.90625 50,3.90625 C53.2386719,3.90625 56.4720703,4.24375 59.6107422,4.909375 C60.6666016,5.13300781 61.7027344,4.45898437 61.9265625,3.40390625 C62.1503906,2.34863281 61.4763672,1.31191406 60.4210937,1.08808594 Z M14.3210937,82.2695313 C15.0064453,81.5839844 15.9066406,81.2414063 16.8070313,81.2414063 C17.7074219,81.2414063 18.6076172,81.5841797 19.2929688,82.2695313 C19.9570312,82.9333984 20.3226563,83.8164063 20.3226563,84.7554688 C20.3226563,85.6945313 19.9570312,86.5773438 19.2929688,87.2414063 C17.9222656,88.6125 15.6917969,88.6121094 14.3210937,87.2414063 C13.6570312,86.5775391 13.2914062,85.6945313 13.2914062,84.7554688 C13.2914062,83.8164063 13.6570312,82.9335938 14.3210937,82.2695313 Z" id="Shape"></path>
            <path d="M89.434375,19.2615234 C90.2017578,18.0744141 90.6148438,16.6916016 90.6148438,15.2443359 C90.6148438,13.2619141 89.8427734,11.3980469 88.4410156,9.99628906 C87.0392578,8.59433594 85.1753906,7.82246094 83.1929688,7.82246094 C81.2105469,7.82246094 79.3466797,8.59453125 77.9449219,9.99628906 C76.5431641,11.3980469 75.7710938,13.2619141 75.7710938,15.2443359 C75.7710938,17.2267578 76.5431641,19.090625 77.9449219,20.4923828 C79.3466797,21.8943359 81.2105469,22.6662109 83.1929688,22.6662109 C84.3681641,22.6662109 85.5005859,22.3929688 86.5208984,21.8800781 C92.7027344,29.9052734 96.09375,39.8318359 96.09375,50 C96.09375,75.4162109 75.4162109,96.09375 50,96.09375 C47.2658203,96.09375 44.5263672,95.8527344 41.8578125,95.3771484 C40.7964844,95.1882813 39.7814453,95.8951172 39.5923828,96.9574219 C39.403125,98.0193359 40.1105469,99.0335937 41.1724609,99.2228516 C44.0667969,99.7384766 47.0367188,100 50,100 C63.3554688,100 75.9115234,94.7990234 85.3554688,85.3554687 C94.7994141,75.9119141 100,63.3554688 100,50 C100,38.8714844 96.2558594,28.0083984 89.434375,19.2615234 Z M85.6791016,17.7302734 C85.0152344,18.3943359 84.1322266,18.7599609 83.1931641,18.7599609 C82.2541016,18.7599609 81.3710938,18.3945313 80.7072266,17.7302734 C79.3363281,16.3595703 79.3363281,14.1292969 80.7072266,12.7583984 C81.3710938,12.0943359 82.2541016,11.7287109 83.1931641,11.7287109 C84.1322266,11.7287109 85.0150391,12.0943359 85.6791016,12.7583984 C86.3431641,13.4222656 86.7087891,14.3052734 86.7087891,15.2443359 C86.7087891,16.1833984 86.3431641,17.0662109 85.6791016,17.7302734 Z" id="Shape"></path>
            <path d="M32.8386719,92.7933594 L32.1011719,94.6019531 L32.8332031,92.7912109 C31.8326172,92.3873047 30.6947266,92.8699219 30.2904297,93.8699219 C29.8861328,94.8699219 30.3691406,96.0083984 31.3691406,96.4128906 L31.4294922,96.4367187 C31.6597656,96.5248047 31.896875,96.5666016 32.1300781,96.5666016 C32.9167969,96.5666016 33.6603516,96.0904297 33.9580078,95.3136719 C34.3439453,94.3060547 33.8460938,93.1791016 32.8386719,92.7933594 Z" id="Path"></path>
            <path d="M68.715625,3.62167969 L68.6808594,3.6078125 C67.6794922,3.20703125 66.5427734,3.69433594 66.1419922,4.69589844 C65.7412109,5.69746094 66.2285156,6.83378906 67.2300781,7.23457031 L67.2523438,7.24355469 C67.4921875,7.34042969 67.7396484,7.38613281 67.9833984,7.38613281 C68.7560547,7.38613281 69.4876953,6.92460938 69.7949219,6.16425781 C70.1990234,5.1640625 69.7158203,4.02578125 68.715625,3.62167969 Z" id="Path"></path>
        </g>
    </g>
</svg>