<?xml version="1.0" encoding="UTF-8"?>
<svg width="100px" height="100px" viewBox="0 0 100 100" version="1.1" xmlns="http://www.w3.org/2000/svg" xmlns:xlink="http://www.w3.org/1999/xlink">
    <!-- Generator: Sketch 57 (83077) - https://sketch.com -->
    <title>capital-venture</title>
    <desc>Created with Sketch.</desc>
    <g id="Styleguide" stroke="none" stroke-width="1" fill="none" fill-rule="evenodd">
        <g id="Artboard" fill="#15B7DD" fill-rule="nonzero">
            <g id="capital-venture">
                <path d="M41.0485477,96.2655602 L15.7979253,96.2655602 C11.2410459,96.2655284 7.05944962,93.7403239 4.93797659,89.7073966 C2.81650355,85.6744694 3.10456645,80.7980541 5.68609959,77.0429461 L20.9975104,54.7717842 L35.8489627,54.7717842 L49.0473029,73.9692946 L51.7825726,72.0887967 L38.3817427,52.596473 L38.3817427,47.0261411 L42.1784232,41.9639004 C42.9437222,40.9391916 43.3584097,39.695129 43.3609959,38.4161826 C43.3607465,36.3671515 42.299679,34.4643108 40.5566581,33.387089 C38.8136372,32.3098672 36.637159,32.2118397 34.8043568,33.1280083 L28.4232365,36.3186722 L22.0421162,33.1282158 C20.209314,32.2120472 18.0328358,32.3100747 16.2898149,33.3872965 C14.5467941,34.4645183 13.4857265,36.3673589 13.4854772,38.41639 C13.4880633,39.6953365 13.9027508,40.9393991 14.6680498,41.9641079 L18.4647303,47.0263485 L18.4647303,52.5966805 L2.95082988,75.1624481 C-0.329326069,79.9332939 -0.695481033,86.1289782 1.99990601,91.2529689 C4.69529306,96.3769596 10.0082455,99.5850622 15.7979253,99.5850622 L41.0485477,99.5850622 C41.290249,99.5850622 41.5354772,99.5794606 41.7773859,99.5682573 L41.6251037,96.2522822 C41.43361,96.2612033 41.2396266,96.2655602 41.0485477,96.2655602 L41.0485477,96.2655602 Z M21.7842324,51.4522822 L21.7842324,48.1327801 L35.0622407,48.1327801 L35.0622407,51.4522822 L21.7842324,51.4522822 Z M16.8049793,38.41639 C16.8049793,37.5177683 17.2705162,36.683282 18.0349295,36.2108485 C18.7993429,35.738415 19.7538466,35.6953755 20.5576763,36.0970954 L27.6809129,39.6587137 C28.1482114,39.8923867 28.6982616,39.8923867 29.1655602,39.6587137 L36.2887967,36.0970954 C37.0926264,35.6953755 38.0471302,35.738415 38.8115435,36.2108485 C39.5759568,36.683282 40.0414938,37.5177683 40.0414938,38.41639 C40.0403051,38.9773226 39.8584302,39.5229474 39.5228216,39.9724066 L35.8921162,44.813278 L20.9543568,44.813278 L17.3236515,39.9724066 C16.9880428,39.5229474 16.8061679,38.9773226 16.8049793,38.41639 L16.8049793,38.41639 Z" id="Shape"></path>
                <path d="M33.4024896,74.6887967 L33.4024896,74.4466805 C33.3999597,72.3772972 32.0567393,70.5481667 30.0829876,69.9263485 L30.0829876,68.0497925 L26.7634855,68.0497925 L26.7634855,69.9263485 C24.920663,70.5044436 23.6132866,72.1433725 23.4592148,74.0685868 C23.3051429,75.9938012 24.3352271,77.8197933 26.0626556,78.68361 L29.2991701,80.3018672 C29.8872907,80.5958363 30.1960949,81.2556127 30.045075,81.8955319 C29.894055,82.5354511 29.3228507,82.9875468 28.6653527,82.9875519 L28.1811203,82.9875519 C27.398514,82.9867514 26.764286,82.3525233 26.7634855,81.569917 L26.7634855,81.3278008 L23.4439834,81.3278008 L23.4439834,81.569917 C23.4465133,83.6393003 24.7897338,85.4684308 26.7634855,86.090249 L26.7634855,87.966805 L30.0829876,87.966805 L30.0829876,86.090249 C31.92581,85.5121539 33.2331864,83.8732251 33.3872583,81.9480107 C33.5413301,80.0227963 32.5112459,78.1968042 30.7838174,77.3329876 L27.5473029,75.7147303 C26.9591823,75.4207612 26.6503781,74.7609848 26.8013981,74.1210656 C26.952418,73.4811464 27.5236223,73.0290507 28.1811203,73.0290456 L28.6653527,73.0290456 C29.447959,73.0298461 30.082187,73.6640742 30.0829876,74.4466805 L30.0829876,74.6887967 L33.4024896,74.6887967 Z" id="Path"></path>
                <polygon id="Path" points="16.8049793 76.3485477 20.1244813 76.3485477 20.1244813 79.6680498 16.8049793 79.6680498"></polygon>
                <polygon id="Path" points="36.7219917 76.3485477 40.0414938 76.3485477 40.0414938 79.6680498 36.7219917 79.6680498"></polygon>
                <path d="M74.8962656,81.3278008 C74.8931785,78.579115 72.6656983,76.3516348 69.9170124,76.3485471 L50,76.3485471 C48.3502141,76.3477345 46.8072777,77.1646456 45.8805892,78.5295788 C44.9539006,79.894512 44.7639481,81.6299988 45.373444,83.1630705 C43.2072886,83.7539624 41.7045713,85.7215027 41.7045713,87.966805 C41.7045713,90.2121073 43.2072886,92.1796475 45.373444,92.7705394 C44.7639481,94.3036112 44.9539006,96.039098 45.8805892,97.4040312 C46.8072777,98.7689644 48.3502141,99.5858754 50,99.5850628 L69.9170124,99.5850628 C72.4108576,99.5833982 74.5188337,97.7370846 74.8490889,95.2652031 C75.1793441,92.7933217 73.6300046,90.4583732 71.2240664,89.8020747 C71.6935923,88.623607 71.6935923,87.310003 71.2240664,86.1315353 C73.3899018,85.5394583 74.8930746,83.5731044 74.8962656,81.3278008 L74.8962656,81.3278008 Z M46.6804979,86.3070539 L66.5975104,86.3070539 C67.5141656,86.3070539 68.2572614,87.0501498 68.2572614,87.966805 C68.2572614,88.8834602 67.5141656,89.626556 66.5975104,89.626556 L46.6804979,89.626556 C45.7638427,89.626556 45.0207469,88.8834602 45.0207469,87.966805 C45.0207469,87.0501498 45.7638427,86.3070539 46.6804979,86.3070539 Z M69.9170124,96.2655602 L50,96.2655602 C49.0833448,96.2655602 48.340249,95.5224643 48.340249,94.6058091 C48.340249,93.6891539 49.0833448,92.9460581 50,92.9460581 L69.9170124,92.9460581 C70.8336676,92.9460581 71.5767635,93.6891539 71.5767635,94.6058091 C71.5767635,95.5224643 70.8336676,96.2655602 69.9170124,96.2655602 Z M69.9170124,82.9875519 L50,82.9875519 C49.0833448,82.9875519 48.340249,82.244456 48.340249,81.3278008 C48.340249,80.4111456 49.0833448,79.6680498 50,79.6680498 L69.9170124,79.6680498 C70.8336676,79.6680498 71.5767635,80.4111456 71.5767635,81.3278008 C71.5767635,82.244456 70.8336676,82.9875519 69.9170124,82.9875519 Z" id="Shape"></path>
                <path d="M69.5570539,16.5580913 L83.1950207,19.5885892 L83.1950207,34.8547718 L86.5145228,34.8547718 L86.5145228,18.2572614 C86.5145228,17.4792716 85.9742035,16.805656 85.2147303,16.6369295 L83.1950207,16.1881743 L83.1950207,9.95850622 L79.8755187,9.95850622 L79.8755187,15.4504149 L76.5560166,14.7128631 L76.5560166,6.63900415 L73.2365145,6.63900415 L73.2365145,13.9751037 L70.276971,13.3174274 L69.5570539,16.5580913 Z" id="Path"></path>
                <polygon id="Path" points="33.4024896 13.2780083 40.0414938 13.2780083 40.0414938 16.5975104 33.4024896 16.5975104"></polygon>
                <polygon id="Path" points="43.3609959 13.2780083 50 13.2780083 50 16.5975104 43.3609959 16.5975104"></polygon>
                <polygon id="Path" points="53.3195021 13.2780083 59.9585062 13.2780083 59.9585062 16.5975104 53.3195021 16.5975104"></polygon>
                <polygon id="Path" points="33.4024896 19.9170124 40.0414938 19.9170124 40.0414938 23.2365145 33.4024896 23.2365145"></polygon>
                <polygon id="Path" points="43.3609959 19.9170124 50 19.9170124 50 23.2365145 43.3609959 23.2365145"></polygon>
                <polygon id="Path" points="53.3195021 19.9170124 59.9585062 19.9170124 59.9585062 23.2365145 53.3195021 23.2365145"></polygon>
                <polygon id="Path" points="43.3609959 26.5560166 50 26.5560166 50 29.8755187 43.3609959 29.8755187"></polygon>
                <polygon id="Path" points="33.4024896 26.5560166 40.0414938 26.5560166 40.0414938 29.8755187 33.4024896 29.8755187"></polygon>
                <polygon id="Path" points="53.3195021 26.5560166 59.9585062 26.5560166 59.9585062 29.8755187 53.3195021 29.8755187"></polygon>
                <polygon id="Path" points="46.6804979 33.1950207 50 33.1950207 50 36.5145228 46.6804979 36.5145228"></polygon>
                <polygon id="Path" points="53.3195021 33.1950207 59.9585062 33.1950207 59.9585062 36.5145228 53.3195021 36.5145228"></polygon>
                <polygon id="Path" points="46.6804979 39.8340249 50 39.8340249 50 43.153527 46.6804979 43.153527"></polygon>
                <polygon id="Path" points="53.3195021 39.8340249 59.9585062 39.8340249 59.9585062 43.153527 53.3195021 43.153527"></polygon>
                <polygon id="Path" points="46.6804979 46.473029 50 46.473029 50 49.7925311 46.6804979 49.7925311"></polygon>
                <polygon id="Path" points="53.3195021 46.473029 59.9585062 46.473029 59.9585062 49.7925311 53.3195021 49.7925311"></polygon>
                <polygon id="Path" points="46.6804979 53.1120332 50 53.1120332 50 56.4315353 46.6804979 56.4315353"></polygon>
                <polygon id="Path" points="53.3195021 53.1120332 59.9585062 53.1120332 59.9585062 56.4315353 53.3195021 56.4315353"></polygon>
                <polygon id="Path" points="53.3195021 59.7510373 59.9585062 59.7510373 59.9585062 63.0705394 53.3195021 63.0705394"></polygon>
                <polygon id="Path" points="81.5352697 46.473029 88.1742739 46.473029 88.1742739 49.7925311 81.5352697 49.7925311"></polygon>
                <polygon id="Path" points="81.5352697 53.1120332 88.1742739 53.1120332 88.1742739 56.4315353 81.5352697 56.4315353"></polygon>
                <polygon id="Path" points="81.5352697 59.7510373 88.1742739 59.7510373 88.1742739 63.0705394 81.5352697 63.0705394"></polygon>
                <polygon id="Path" points="81.5352697 66.3900415 88.1742739 66.3900415 88.1742739 69.7095436 81.5352697 69.7095436"></polygon>
                <polygon id="Path" points="81.5352697 73.0290456 88.1742739 73.0290456 88.1742739 76.3485477 81.5352697 76.3485477"></polygon>
                <polygon id="Path" points="81.5352697 79.6680498 88.1742739 79.6680498 88.1742739 82.9875519 81.5352697 82.9875519"></polygon>
                <polygon id="Path" points="81.5352697 86.3070539 88.1742739 86.3070539 88.1742739 89.626556 81.5352697 89.626556"></polygon>
                <polygon id="Path" points="71.5767635 46.473029 78.2157676 46.473029 78.2157676 49.7925311 71.5767635 49.7925311"></polygon>
                <polygon id="Path" points="71.5767635 53.1120332 78.2157676 53.1120332 78.2157676 56.4315353 71.5767635 56.4315353"></polygon>
                <polygon id="Path" points="71.5767635 59.7510373 78.2157676 59.7510373 78.2157676 63.0705394 71.5767635 63.0705394"></polygon>
                <polygon id="Path" points="71.5767635 66.3900415 78.2157676 66.3900415 78.2157676 69.7095436 71.5767635 69.7095436"></polygon>
                <path d="M25.1037344,9.95850622 L26.7634855,9.95850622 L26.7634855,31.5352697 L30.0829876,31.5352697 L30.0829876,9.95850622 L63.2780083,9.95850622 L63.2780083,73.0290456 L66.5975104,73.0290456 L66.5975104,9.95850622 L68.2572614,9.95850622 C69.1739166,9.95850622 69.9170124,9.21541037 69.9170124,8.29875519 L69.9170124,1.65975104 C69.9170124,0.743095851 69.1739166,0 68.2572614,0 L25.1037344,0 C24.1870793,0 23.4439834,0.743095851 23.4439834,1.65975104 L23.4439834,8.29875519 C23.4439834,9.21541037 24.1870793,9.95850622 25.1037344,9.95850622 Z M26.7634855,3.31950207 L66.5975104,3.31950207 L66.5975104,6.63900415 L26.7634855,6.63900415 L26.7634855,3.31950207 Z" id="Shape"></path>
                <path d="M94.813278,96.2655602 L94.813278,39.8340249 C94.813278,38.9173697 94.0701822,38.1742739 93.153527,38.1742739 L69.9170124,38.1742739 L69.9170124,41.4937759 L91.4937759,41.4937759 L91.4937759,96.2655602 L76.5560166,96.2655602 L76.5560166,99.5850622 L99.7925311,99.5850622 L99.7925311,96.2655602 L94.813278,96.2655602 Z" id="Path"></path>
                <polygon id="Path" points="76.5560166 29.8755187 79.8755187 29.8755187 79.8755187 33.1950207 76.5560166 33.1950207"></polygon>
                <polygon id="Path" points="69.9170124 29.8755187 73.2365145 29.8755187 73.2365145 33.1950207 69.9170124 33.1950207"></polygon>
                <polygon id="Path" points="76.5560166 23.2365145 79.8755187 23.2365145 79.8755187 26.5560166 76.5560166 26.5560166"></polygon>
                <polygon id="Path" points="69.9170124 23.2365145 73.2365145 23.2365145 73.2365145 26.5560166 69.9170124 26.5560166"></polygon>
            </g>
        </g>
    </g>
</svg>