<?xml version="1.0" encoding="UTF-8"?>
<svg width="100px" height="100px" viewBox="0 0 100 100" version="1.1" xmlns="http://www.w3.org/2000/svg" xmlns:xlink="http://www.w3.org/1999/xlink">
    <!-- Generator: Sketch 57 (83077) - https://sketch.com -->
    <title>Artboard</title>
    <desc>Created with Sketch.</desc>
    <g id="Artboard" stroke="none" stroke-width="1" fill="none" fill-rule="evenodd">
        <g id="purse-(2)" transform="translate(0.000000, 5.000000)" fill="#15B7DD" fill-rule="nonzero">
            <path d="M95.4194932,37.5971053 L93.9582846,37.5971053 L93.9582846,33.1555263 L93.9582846,17.3660526 C93.9582846,12.1965789 89.8044834,7.99085526 84.6990253,7.99085526 L44.5471735,7.99085526 L17.4588694,0.154539474 C17.4510721,0.152368421 17.4430799,0.151184211 17.4352827,0.149013158 C17.4272904,0.146842105 17.4196881,0.143684211 17.4116959,0.141710526 C17.3953216,0.137565789 17.3791423,0.135592105 17.362963,0.132039474 C17.3378168,0.126710526 17.3126706,0.121184211 17.2875244,0.117039474 C17.2647173,0.113289474 17.2423002,0.110921053 17.2194932,0.108157895 C17.1929825,0.105 17.1666667,0.102236842 17.1403509,0.100657895 C17.1189084,0.0985759631 17.0976608,0.0985759631 17.0762183,0.0985759631 C17.0489279,0.0985759631 17.0218324,0.0985759631 16.9947368,0.0985759631 C16.9746589,0.100263158 16.9545809,0.102236842 16.9346979,0.103815789 C16.9068226,0.106184211 16.8789474,0.10875 16.851462,0.112894737 C16.8327485,0.115657895 16.81423,0.119210526 16.7957115,0.122565789 C16.7672515,0.127697368 16.7391813,0.133223684 16.711306,0.140131579 C16.6939571,0.144473684 16.6769981,0.149407895 16.6598441,0.154342105 C16.631384,0.162631579 16.6033138,0.171118421 16.5752437,0.180986842 C16.5594542,0.186710526 16.5438596,0.192828947 16.5280702,0.199144737 C16.4998051,0.210197368 16.4717349,0.221842105 16.4442495,0.234671053 C16.4296296,0.241578947 16.4153996,0.249078947 16.4009747,0.256381579 C16.3734893,0.270394737 16.3463938,0.284605263 16.319883,0.300592105 C16.3060429,0.308684211 16.2927875,0.317368421 16.2791423,0.326052632 C16.2530214,0.342631579 16.2272904,0.359605263 16.2023392,0.377960526 C16.1892788,0.387434211 16.1766082,0.397697368 16.1637427,0.407763158 C16.1397661,0.426513158 16.1159844,0.445657895 16.0931774,0.465986842 C16.0803119,0.477434211 16.0680312,0.489473684 16.0555556,0.501315789 C16.0341131,0.521842105 16.0128655,0.542368421 15.9925926,0.564078947 C15.979922,0.577697368 15.9680312,0.591907895 15.9557505,0.606118421 C15.937232,0.627631579 15.9189084,0.649342105 15.9015595,0.672039474 C15.8890838,0.688421053 15.8773879,0.705197368 15.8654971,0.721973684 C15.8500975,0.743881579 15.8348928,0.765986842 15.8208577,0.788684211 C15.8087719,0.808026316 15.7976608,0.828157895 15.7865497,0.848092105 C15.774269,0.87 15.7619883,0.892105263 15.7508772,0.914802632 C15.739961,0.936907895 15.7302144,0.959605263 15.7202729,0.982302632 C15.7105263,1.00460526 15.7009747,1.02690789 15.6923977,1.04980263 C15.6834308,1.07388158 15.6756335,1.09855263 15.6676413,1.12342105 C15.6625731,1.13940789 15.6563353,1.15440789 15.6516569,1.17059211 C15.6493177,1.17868421 15.6483431,1.18657895 15.6461988,1.19447368 C15.6440546,1.20256579 15.6409357,1.21026316 15.6389864,1.21835526 L13.9672515,7.99046053 L9.26023392,7.99046053 C4.16491228,7.99046053 0.0183235867,12.1792105 0.00155945419,17.3344737 C0.00136452242,17.3451316 0,17.3551974 0,17.3656579 L0,68.6814474 C0,69.4985526 0.656920078,70.1617105 1.4619883,70.1617105 C2.26900585,70.1617105 2.92397661,69.4985526 2.92397661,68.6814474 L2.92397661,24.1932237 C4.58167641,25.7713816 6.81052632,26.74125 9.26023392,26.74125 L84.6990253,26.74125 C84.7007797,26.74125 84.7023392,26.7410526 84.7040936,26.7410526 C88.1949318,26.7438158 91.034308,29.6202632 91.034308,33.1557237 L91.034308,43.5183553 L74.9500975,43.5183553 C74.9491228,43.5183553 74.9483431,43.5185526 74.9473684,43.5185526 C74.9050682,43.5185526 74.862963,43.5211184 74.8210526,43.5248684 C74.7744639,43.5290132 74.72846,43.5357237 74.6832359,43.5442105 C74.6764133,43.5453947 74.6697856,43.5459868 74.662963,43.5473684 C74.6247563,43.5550658 74.5873294,43.5653289 74.5500975,43.5759868 C74.5419103,43.5783553 74.5335283,43.5799342 74.5255361,43.5825 C74.4923977,43.5927632 74.4602339,43.605 74.4280702,43.6174342 C74.4157895,43.6221711 74.4033138,43.6261184 74.3910331,43.63125 C74.3641326,43.6425 74.3382066,43.6557237 74.3122807,43.6685526 C74.2951267,43.6768421 74.2777778,43.6845395 74.2610136,43.6934211 C74.2407407,43.7042763 74.2216374,43.7167105 74.2021442,43.7285526 C74.1805068,43.7415789 74.1584795,43.7542105 74.1374269,43.7684211 C74.1231969,43.7778947 74.1101365,43.78875 74.0964912,43.7988158 C74.07154,43.8169737 74.0463938,43.8349342 74.0226121,43.8548684 C74.0122807,43.8635526 74.002729,43.8732237 73.9927875,43.8821053 C73.9672515,43.9046053 73.9417154,43.9269079 73.9175439,43.9513816 C73.9033138,43.9657895 73.8904483,43.9815789 73.8769981,43.9965789 C73.8580897,44.0173026 73.8385965,44.0376316 73.8206628,44.0597368 C73.7904483,44.0970395 73.7621832,44.1357237 73.7356725,44.1757895 C73.7350877,44.1763816 73.7345029,44.1771711 73.7341131,44.1779605 L65.937232,56.0202632 C65.882846,56.1027632 65.8368421,56.1901974 65.8003899,56.2811842 C65.7865497,56.3151316 65.7754386,56.3496711 65.7643275,56.3840132 C65.7610136,56.3944737 65.7567251,56.4045395 65.7536062,56.415 C65.7426901,56.4515132 65.734308,56.4884211 65.7263158,56.5251316 C65.7241715,56.5348026 65.7214425,56.5442763 65.7194932,56.5539474 C65.7130604,56.5871053 65.7087719,56.6204605 65.7046784,56.6538158 C65.702924,56.6680263 65.7001949,56.6822368 65.6988304,56.6966447 C65.6961014,56.7240789 65.6955166,56.7513158 65.6945419,56.77875 C65.6935673,56.7996711 65.6918129,56.8205921 65.6918129,56.8417105 C65.6918129,56.8620395 65.6935673,56.8823684 65.694347,56.9026974 C65.6953216,56.9307237 65.6961014,56.9589474 65.6988304,56.9869737 C65.7001949,57.0005921 65.702729,57.0142105 65.7044834,57.0278289 C65.7087719,57.0617763 65.7130604,57.0957237 65.7196881,57.1294737 C65.7214425,57.13875 65.7241715,57.1478289 65.7263158,57.1571053 C65.734308,57.1942105 65.742885,57.2313158 65.7538012,57.2682237 C65.7569201,57.2786842 65.7612086,57.28875 65.7645224,57.2994079 C65.7756335,57.33375 65.7867446,57.3682895 65.8005848,57.4022368 C65.837232,57.4930263 65.8832359,57.5806579 65.9378168,57.6633553 L73.7345029,69.5038816 C73.7348928,69.5044737 73.7352827,69.5048684 73.7356725,69.5054605 C73.7670565,69.5526316 73.8013645,69.5976316 73.8376218,69.6408553 C73.8495127,69.6550658 73.8621832,69.6682895 73.8744639,69.6817105 C73.8992203,69.7091447 73.9249513,69.7355921 73.9516569,69.7610526 C73.9674464,69.7760526 73.9830409,69.7906579 73.9990253,69.8046711 C74.0274854,69.8293421 74.0569201,69.8524342 74.0871345,69.8749342 C74.1007797,69.885 74.1138402,69.8960526 74.1276803,69.9055263 C74.17154,69.9357237 74.2169591,69.9635526 74.2639376,69.9888158 C74.2758285,69.9951316 74.2881092,70.0004605 74.3,70.0063816 C74.3374269,70.0253289 74.3756335,70.0428947 74.4148148,70.0584868 C74.4300195,70.0646053 74.4452242,70.0701316 74.4606238,70.0756579 C74.4978558,70.0890789 74.5356725,70.1009211 74.574269,70.1113816 C74.5900585,70.1155263 74.605653,70.1198684 74.6216374,70.1238158 C74.6612086,70.1330921 74.7013645,70.1401974 74.7421053,70.1461184 C74.7569201,70.1482895 74.77154,70.15125 74.7863548,70.1530263 C74.8366472,70.15875 74.8877193,70.1619079 74.9395712,70.1623026 C74.9436647,70.1623026 74.9477583,70.1630921 74.9520468,70.1630921 C74.9528265,70.1630921 74.9538012,70.1628947 74.9547758,70.1628947 L91.0348928,70.1628947 L91.0348928,80.5263158 C91.0348928,84.0635526 88.1927875,86.9411842 84.6996101,86.9411842 L9.26101365,86.9411842 C5.76783626,86.9411842 2.92573099,84.0635526 2.92573099,80.5263158 C2.92573099,80.5186184 2.92475634,80.5111184 2.9245614,80.5034211 L2.9245614,74.6032895 C2.9245614,73.7881579 2.26959064,73.1230263 1.4625731,73.1230263 C0.657504873,73.1230263 0,73.7881579 0,74.6032895 L0,80.5263158 C0,80.5417105 0.00233918129,80.5567105 0.00292397661,80.5719079 C0.0272904483,85.7204605 4.1705653,89.9017105 9.26101365,89.9017105 L84.6996101,89.9017105 C89.8046784,89.9017105 93.9580897,85.6967763 93.9588694,80.5278947 C93.9588694,80.5276974 93.9588694,80.5275 93.9588694,80.5271053 L93.9588694,70.1628947 L95.420078,70.1628947 C97.8380117,70.1628947 99.8052632,68.1710526 99.8052632,65.7228947 L99.8052632,42.0371053 C99.8052632,39.5889474 97.8374269,37.5971053 95.4194932,37.5971053 Z M18.1091618,3.42157895 L43.9062378,10.8846711 C43.9074074,10.8850658 43.9087719,10.8852632 43.9099415,10.8856579 L61.1996101,15.8873684 L15.0319688,15.8873684 L18.1091618,3.42157895 Z M91.0341131,26.3277632 C89.3766082,24.75 87.1481481,23.7803289 84.6990253,23.7803289 C84.6964912,23.7803289 84.694152,23.7807237 84.691423,23.7807237 L9.26023392,23.7807237 C5.7668616,23.7807237 2.92475634,20.9030921 2.92475634,17.3660526 C2.92475634,13.8290132 5.7668616,10.9513816 9.26023392,10.9513816 L13.2364522,10.9513816 L12.0181287,15.8873684 L9.26062378,15.8873684 C8.45321637,15.8873684 7.79863548,16.5501316 7.79863548,17.3676316 C7.79863548,18.1851316 8.45321637,18.8478947 9.26062378,18.8478947 L13.1545809,18.8478947 C13.1565302,18.8478947 13.1586745,18.8482895 13.1608187,18.8482895 C13.1623782,18.8482895 13.1639376,18.8478947 13.1653021,18.8478947 L71.6333333,18.8478947 C71.6352827,18.8478947 71.637037,18.8482895 71.6387914,18.8482895 C71.6403509,18.8482895 71.6419103,18.8478947 71.6434698,18.8478947 L82.7479532,18.8478947 C83.5553606,18.8478947 84.2099415,18.1851316 84.2099415,17.3676316 C84.2099415,16.5501316 83.5553606,15.8873684 82.7479532,15.8873684 L71.842885,15.8873684 L54.7807018,10.9513816 L84.6988304,10.9513816 C88.1920078,10.9513816 91.0341131,13.8290132 91.0341131,17.3660526 L91.0341131,26.3277632 Z M96.8807018,65.7221053 L96.8807018,65.7221053 C96.8807018,66.5378289 96.2251462,67.2015789 95.4194932,67.2015789 L75.7325536,67.2015789 L68.9101365,56.8409211 L75.7325536,46.4786842 L95.4194932,46.4786842 C95.439961,46.4786842 95.4598441,46.4763158 95.480117,46.4755263 C95.9705653,46.4686184 96.4415205,46.3801974 96.8807018,46.2226974 L96.8807018,65.7221053 L96.8807018,65.7221053 Z M95.4194932,43.5165789 C95.4093567,43.5165789 95.3994152,43.5179605 95.3892788,43.5181579 L93.9582846,43.5181579 L93.9582846,40.5576316 L95.4194932,40.5576316 C96.2251462,40.5576316 96.8807018,41.2213816 96.8807018,42.0371053 C96.8807018,42.8528289 96.2251462,43.5165789 95.4194932,43.5165789 Z" id="Shape"></path>
            <path d="M80.7990253,51.4130921 C77.8430799,51.4130921 75.4384016,53.8480263 75.4384016,56.8409211 C75.4384016,59.8338158 77.8430799,62.2685526 80.7990253,62.2685526 C83.7549708,62.2685526 86.1596491,59.8338158 86.1596491,56.8409211 C86.1596491,53.8480263 83.7549708,51.4130921 80.7990253,51.4130921 Z M80.7990253,59.3080263 C79.4553606,59.3080263 78.3623782,58.2013816 78.3623782,56.8409211 C78.3623782,55.4804605 79.4553606,54.3736184 80.7990253,54.3736184 C82.1426901,54.3736184 83.2356725,55.4804605 83.2356725,56.8409211 C83.2356725,58.2013816 82.1426901,59.3080263 80.7990253,59.3080263 Z" id="Shape"></path>
        </g>
    </g>
</svg>